<svg width="922" height="29" viewBox="0 0 922 29" fill="none" xmlns="http://www.w3.org/2000/svg">
<path d="M13.819 18.679C11.8663 18.679 10.426 18.128 9.498 17.026C8.58933 15.924 8.135 14.4643 8.135 12.647C8.135 10.8103 8.63767 9.33133 9.643 8.21C10.6677 7.08867 12.0887 6.528 13.906 6.528C14.5053 6.528 15.1047 6.59567 15.704 6.731C16.3227 6.86633 16.9123 7.06933 17.473 7.34L16.603 9.37C16.197 9.17667 15.762 9.022 15.298 8.906C14.8533 8.77067 14.3797 8.703 13.877 8.703C12.949 8.703 12.2143 9.051 11.673 9.747C11.1317 10.443 10.861 11.4193 10.861 12.676C10.861 15.2473 11.9243 16.533 14.051 16.533C14.573 16.533 15.0757 16.475 15.559 16.359C16.0423 16.243 16.516 16.098 16.98 15.924V18.099C16.4967 18.2923 15.994 18.4373 15.472 18.534C14.9693 18.6307 14.4183 18.679 13.819 18.679ZM13.5 25.204C11.76 25.204 10.1263 24.8753 8.599 24.218C7.091 23.58 5.757 22.6907 4.597 21.55C3.45633 20.39 2.55733 19.056 1.9 17.548C1.262 16.0207 0.943 14.387 0.943 12.647C0.943 10.907 1.262 9.283 1.9 7.775C2.55733 6.24767 3.45633 4.91367 4.597 3.773C5.757 2.613 7.091 1.714 8.599 1.076C10.1263 0.418666 11.76 0.0899994 13.5 0.0899994C15.24 0.0899994 16.864 0.418666 18.372 1.076C19.8993 1.714 21.2333 2.613 22.374 3.773C23.534 4.91367 24.433 6.24767 25.071 7.775C25.7283 9.283 26.057 10.907 26.057 12.647C26.057 14.387 25.7283 16.0207 25.071 17.548C24.433 19.056 23.534 20.39 22.374 21.55C21.2333 22.6907 19.8993 23.58 18.372 24.218C16.864 24.8753 15.24 25.204 13.5 25.204ZM13.5 22.623C14.892 22.623 16.1873 22.3717 17.386 21.869C18.5847 21.347 19.6383 20.6317 20.547 19.723C21.475 18.795 22.1903 17.7317 22.693 16.533C23.215 15.315 23.476 14.0197 23.476 12.647C23.476 11.255 23.215 9.95967 22.693 8.761C22.1903 7.56233 21.475 6.50867 20.547 5.6C19.6383 4.672 18.575 3.95667 17.357 3.454C16.1583 2.932 14.8727 2.671 13.5 2.671C12.108 2.671 10.8127 2.932 9.614 3.454C8.41533 3.95667 7.352 4.672 6.424 5.6C5.51533 6.50867 4.8 7.572 4.278 8.79C3.77533 9.98867 3.524 11.2743 3.524 12.647C3.524 14.039 3.77533 15.3343 4.278 16.533C4.8 17.7317 5.51533 18.795 6.424 19.723C7.352 20.6317 8.41533 21.347 9.614 21.869C10.832 22.3717 12.1273 22.623 13.5 22.623ZM50.6704 20.0547V23H36.7085V20.4795L43.4062 13.2437C44.1048 12.4507 44.6571 11.7616 45.063 11.1763C45.4689 10.591 45.7568 10.0623 45.9268 9.59033C46.1061 9.10889 46.1958 8.65104 46.1958 8.2168C46.1958 7.58431 46.0825 7.03206 45.856 6.56006C45.6294 6.07861 45.299 5.70573 44.8647 5.44141C44.4399 5.17708 43.916 5.04492 43.293 5.04492C42.6038 5.04492 42.0138 5.2054 41.5229 5.52637C41.0415 5.83789 40.6733 6.27214 40.4185 6.8291C40.173 7.38607 40.0503 8.02327 40.0503 8.74072H36.2979C36.2979 7.52295 36.5811 6.41374 37.1475 5.41309C37.7139 4.40299 38.5257 3.59587 39.583 2.9917C40.6403 2.38753 41.8958 2.08545 43.3496 2.08545C44.7656 2.08545 45.9645 2.32145 46.9463 2.79346C47.9281 3.25602 48.6738 3.91683 49.1836 4.77588C49.6934 5.63493 49.9482 6.65918 49.9482 7.84863C49.9482 8.50944 49.8397 9.16081 49.6226 9.80273C49.4054 10.4447 49.0986 11.0819 48.7021 11.7144C48.3151 12.3374 47.8525 12.9699 47.3145 13.6118C46.7764 14.2537 46.1769 14.9098 45.5161 15.5801L41.4946 20.0547H50.6704ZM66.9263 10.9214V14.3906C66.9263 15.9766 66.7658 17.3312 66.4448 18.4546C66.1239 19.578 65.6613 20.4984 65.0571 21.2158C64.453 21.9238 63.7308 22.4478 62.8906 22.7876C62.0505 23.118 61.1159 23.2832 60.0869 23.2832C59.2656 23.2832 58.501 23.1794 57.793 22.9717C57.085 22.7546 56.4478 22.4242 55.8813 21.9805C55.3244 21.5273 54.8429 20.9515 54.437 20.2529C54.0405 19.5544 53.7337 18.7189 53.5166 17.7466C53.3089 16.7743 53.2051 15.6556 53.2051 14.3906V10.9214C53.2051 9.33545 53.3656 7.98551 53.6865 6.87158C54.0169 5.75765 54.4842 4.84668 55.0884 4.13867C55.6925 3.43066 56.4147 2.91618 57.2549 2.59521C58.0951 2.26481 59.0296 2.09961 60.0586 2.09961C60.8893 2.09961 61.654 2.20345 62.3525 2.41113C63.0605 2.61882 63.693 2.9445 64.25 3.38818C64.8164 3.82243 65.2979 4.38883 65.6943 5.0874C66.0908 5.77653 66.3929 6.60726 66.6006 7.57959C66.8177 8.54248 66.9263 9.65641 66.9263 10.9214ZM63.188 14.9004V10.3975C63.188 9.60449 63.1408 8.91536 63.0464 8.33008C62.9614 7.73535 62.834 7.23031 62.6641 6.81494C62.4941 6.39958 62.2817 6.06445 62.0269 5.80957C61.772 5.54525 61.4793 5.35173 61.1489 5.229C60.8185 5.10628 60.4551 5.04492 60.0586 5.04492C59.5677 5.04492 59.1287 5.14404 58.7417 5.34229C58.3547 5.53109 58.029 5.83317 57.7646 6.24854C57.5003 6.6639 57.2974 7.21615 57.1558 7.90527C57.0236 8.58496 56.9575 9.41569 56.9575 10.3975V14.9004C56.9575 15.6934 57 16.3872 57.085 16.9819C57.1794 17.5767 57.3115 18.0864 57.4814 18.5112C57.6608 18.936 57.8732 19.2853 58.1187 19.5591C58.3735 19.8234 58.6662 20.0216 58.9966 20.1538C59.327 20.2765 59.6904 20.3379 60.0869 20.3379C60.5872 20.3379 61.0262 20.2388 61.4038 20.0405C61.7909 19.8423 62.1165 19.5308 62.3809 19.106C62.6452 18.6717 62.8434 18.11 62.9756 17.4209C63.1172 16.7223 63.188 15.8822 63.188 14.9004ZM83.8052 20.0547V23H69.8433V20.4795L76.541 13.2437C77.2396 12.4507 77.7918 11.7616 78.1978 11.1763C78.6037 10.591 78.8916 10.0623 79.0615 9.59033C79.2409 9.10889 79.3306 8.65104 79.3306 8.2168C79.3306 7.58431 79.2173 7.03206 78.9907 6.56006C78.7642 6.07861 78.4338 5.70573 77.9995 5.44141C77.5747 5.17708 77.0508 5.04492 76.4277 5.04492C75.7386 5.04492 75.1486 5.2054 74.6577 5.52637C74.1763 5.83789 73.8081 6.27214 73.5532 6.8291C73.3078 7.38607 73.1851 8.02327 73.1851 8.74072H69.4326C69.4326 7.52295 69.7158 6.41374 70.2822 5.41309C70.8486 4.40299 71.6605 3.59587 72.7178 2.9917C73.7751 2.38753 75.0306 2.08545 76.4844 2.08545C77.9004 2.08545 79.0993 2.32145 80.0811 2.79346C81.0628 3.25602 81.8086 3.91683 82.3184 4.77588C82.8281 5.63493 83.083 6.65918 83.083 7.84863C83.083 8.50944 82.9744 9.16081 82.7573 9.80273C82.5402 10.4447 82.2334 11.0819 81.8369 11.7144C81.4499 12.3374 80.9873 12.9699 80.4492 13.6118C79.9111 14.2537 79.3117 14.9098 78.6509 15.5801L74.6294 20.0547H83.8052ZM100.373 20.0547V23H86.4106V20.4795L93.1084 13.2437C93.807 12.4507 94.3592 11.7616 94.7651 11.1763C95.1711 10.591 95.459 10.0623 95.6289 9.59033C95.8083 9.10889 95.8979 8.65104 95.8979 8.2168C95.8979 7.58431 95.7847 7.03206 95.5581 6.56006C95.3315 6.07861 95.0011 5.70573 94.5669 5.44141C94.1421 5.17708 93.6182 5.04492 92.9951 5.04492C92.306 5.04492 91.716 5.2054 91.2251 5.52637C90.7437 5.83789 90.3755 6.27214 90.1206 6.8291C89.8752 7.38607 89.7524 8.02327 89.7524 8.74072H86C86 7.52295 86.2832 6.41374 86.8496 5.41309C87.416 4.40299 88.2279 3.59587 89.2852 2.9917C90.3424 2.38753 91.598 2.08545 93.0518 2.08545C94.4678 2.08545 95.6667 2.32145 96.6484 2.79346C97.6302 3.25602 98.376 3.91683 98.8857 4.77588C99.3955 5.63493 99.6504 6.65918 99.6504 7.84863C99.6504 8.50944 99.5418 9.16081 99.3247 9.80273C99.1076 10.4447 98.8008 11.0819 98.4043 11.7144C98.0173 12.3374 97.5547 12.9699 97.0166 13.6118C96.4785 14.2537 95.8791 14.9098 95.2183 15.5801L91.1968 20.0547H100.373ZM106.702 19.6299L106.674 22.2212C106.674 23.2313 106.424 24.2555 105.923 25.2939C105.423 26.3324 104.776 27.1914 103.983 27.8711L102.001 26.7808C102.256 26.356 102.492 25.9264 102.709 25.4922C102.936 25.0579 103.115 24.5859 103.247 24.0762C103.389 23.5758 103.459 23.0142 103.459 22.3911V19.6299H106.702ZM128.296 17.6475C128.296 17.251 128.235 16.897 128.112 16.5854C127.999 16.2645 127.787 15.9766 127.475 15.7217C127.173 15.4574 126.743 15.2025 126.187 14.957C125.639 14.7021 124.931 14.4378 124.062 14.1641C123.1 13.862 122.203 13.5221 121.372 13.1445C120.541 12.7669 119.81 12.328 119.177 11.8276C118.554 11.3273 118.068 10.7515 117.719 10.1001C117.369 9.43929 117.195 8.67464 117.195 7.80615C117.195 6.95654 117.374 6.18245 117.733 5.48389C118.101 4.78532 118.62 4.18587 119.291 3.68555C119.961 3.17578 120.749 2.78402 121.655 2.51025C122.571 2.23649 123.581 2.09961 124.686 2.09961C126.215 2.09961 127.536 2.37809 128.65 2.93506C129.774 3.49202 130.642 4.24723 131.256 5.20068C131.869 6.15413 132.176 7.22559 132.176 8.41504H128.296C128.296 7.77311 128.16 7.20671 127.886 6.71582C127.621 6.22493 127.215 5.83789 126.668 5.55469C126.13 5.27148 125.45 5.12988 124.629 5.12988C123.836 5.12988 123.175 5.24788 122.646 5.48389C122.127 5.71989 121.736 6.04085 121.471 6.44678C121.216 6.8527 121.089 7.30583 121.089 7.80615C121.089 8.18376 121.179 8.5236 121.358 8.82568C121.537 9.11833 121.806 9.39681 122.165 9.66113C122.524 9.91602 122.967 10.1567 123.496 10.3833C124.034 10.6004 124.657 10.8175 125.365 11.0347C126.498 11.3745 127.489 11.7521 128.339 12.1675C129.198 12.5828 129.911 13.0549 130.477 13.5835C131.053 14.1121 131.482 14.7069 131.766 15.3677C132.058 16.0285 132.205 16.779 132.205 17.6191C132.205 18.5065 132.03 19.2995 131.681 19.998C131.331 20.6966 130.831 21.2913 130.18 21.7822C129.528 22.2731 128.745 22.646 127.829 22.9009C126.923 23.1558 125.908 23.2832 124.785 23.2832C123.784 23.2832 122.793 23.151 121.811 22.8867C120.839 22.613 119.956 22.207 119.163 21.6689C118.37 21.1214 117.738 20.4323 117.266 19.6016C116.794 18.7614 116.558 17.7796 116.558 16.6562H120.466C120.466 17.3076 120.57 17.8646 120.777 18.3271C120.994 18.7803 121.297 19.1532 121.684 19.4458C122.08 19.729 122.543 19.9367 123.071 20.0688C123.6 20.201 124.171 20.2671 124.785 20.2671C125.578 20.2671 126.229 20.1585 126.739 19.9414C127.258 19.7148 127.645 19.4033 127.9 19.0068C128.164 18.6104 128.296 18.1572 128.296 17.6475ZM134.258 15.4951V15.1978C134.258 14.0744 134.418 13.0407 134.739 12.0967C135.06 11.1432 135.528 10.3172 136.141 9.61865C136.755 8.92008 137.505 8.37728 138.393 7.99023C139.28 7.59375 140.29 7.39551 141.423 7.39551C142.575 7.39551 143.594 7.59375 144.481 7.99023C145.378 8.37728 146.133 8.92008 146.747 9.61865C147.361 10.3172 147.828 11.1432 148.149 12.0967C148.47 13.0407 148.63 14.0744 148.63 15.1978V15.4951C148.63 16.609 148.47 17.6427 148.149 18.5962C147.828 19.5402 147.361 20.3662 146.747 21.0742C146.133 21.7728 145.383 22.3156 144.496 22.7026C143.608 23.0897 142.593 23.2832 141.451 23.2832C140.318 23.2832 139.304 23.0897 138.407 22.7026C137.51 22.3156 136.755 21.7728 136.141 21.0742C135.528 20.3662 135.06 19.5402 134.739 18.5962C134.418 17.6427 134.258 16.609 134.258 15.4951ZM137.996 15.1978V15.4951C137.996 16.1654 138.062 16.7931 138.194 17.3784C138.326 17.9637 138.529 18.4782 138.803 18.9219C139.077 19.3656 139.431 19.7148 139.865 19.9697C140.309 20.2152 140.838 20.3379 141.451 20.3379C142.055 20.3379 142.575 20.2152 143.009 19.9697C143.443 19.7148 143.797 19.3656 144.071 18.9219C144.354 18.4782 144.562 17.9637 144.694 17.3784C144.826 16.7931 144.892 16.1654 144.892 15.4951V15.1978C144.892 14.5369 144.826 13.9186 144.694 13.3428C144.562 12.7575 144.354 12.243 144.071 11.7993C143.797 11.3462 143.438 10.9922 142.995 10.7373C142.56 10.473 142.036 10.3408 141.423 10.3408C140.819 10.3408 140.299 10.473 139.865 10.7373C139.431 10.9922 139.077 11.3462 138.803 11.7993C138.529 12.243 138.326 12.7575 138.194 13.3428C138.062 13.9186 137.996 14.5369 137.996 15.1978ZM160.468 19.3608V7.67871H164.235V23H160.695L160.468 19.3608ZM160.95 16.189L162.111 16.1606C162.111 17.1896 161.998 18.1383 161.771 19.0068C161.544 19.8753 161.19 20.6305 160.709 21.2725C160.237 21.9049 159.638 22.4006 158.911 22.7593C158.184 23.1086 157.325 23.2832 156.333 23.2832C155.578 23.2832 154.889 23.1794 154.266 22.9717C153.643 22.7546 153.105 22.4194 152.652 21.9663C152.208 21.5037 151.864 20.9137 151.618 20.1963C151.373 19.4694 151.25 18.5962 151.25 17.5767V7.67871H154.988V17.605C154.988 18.1147 155.045 18.5396 155.158 18.8794C155.281 19.2192 155.446 19.4977 155.654 19.7148C155.871 19.9225 156.121 20.0736 156.404 20.168C156.697 20.2529 157.008 20.2954 157.339 20.2954C158.245 20.2954 158.958 20.116 159.477 19.7573C160.006 19.3892 160.383 18.8983 160.61 18.2847C160.836 17.6616 160.95 16.9631 160.95 16.189ZM171.216 10.9497V23H167.478V7.67871H170.989L171.216 10.9497ZM170.621 14.7871H169.517C169.526 13.6732 169.677 12.6631 169.97 11.7568C170.262 10.8506 170.673 10.0718 171.202 9.42041C171.74 8.76904 172.377 8.26872 173.113 7.91943C173.85 7.57015 174.671 7.39551 175.577 7.39551C176.313 7.39551 176.979 7.49935 177.574 7.70703C178.168 7.91471 178.678 8.24512 179.103 8.69824C179.537 9.15137 179.868 9.74609 180.094 10.4824C180.33 11.2093 180.448 12.1061 180.448 13.1729V23H176.682V13.1445C176.682 12.446 176.578 11.8937 176.37 11.4878C176.172 11.0819 175.879 10.7939 175.492 10.624C175.115 10.4541 174.647 10.3691 174.09 10.3691C173.514 10.3691 173.009 10.4871 172.575 10.7231C172.15 10.9497 171.792 11.266 171.499 11.6719C171.216 12.0778 170.999 12.5451 170.848 13.0737C170.697 13.6024 170.621 14.1735 170.621 14.7871ZM192.938 19.7432V1.25H196.704V23H193.306L192.938 19.7432ZM183.096 15.5234V15.2261C183.096 14.0555 183.228 12.9935 183.493 12.04C183.766 11.0771 184.163 10.2511 184.682 9.56201C185.201 8.87288 185.829 8.33952 186.565 7.96191C187.311 7.58431 188.156 7.39551 189.1 7.39551C190.016 7.39551 190.813 7.57959 191.493 7.94775C192.182 8.31592 192.768 8.83984 193.249 9.51953C193.74 10.1992 194.132 11.0063 194.424 11.9409C194.717 12.866 194.929 13.8856 195.062 14.9995V15.8066C194.929 16.8923 194.717 17.8882 194.424 18.7944C194.132 19.7007 193.74 20.4937 193.249 21.1733C192.768 21.8436 192.182 22.3628 191.493 22.731C190.804 23.0991 189.997 23.2832 189.072 23.2832C188.137 23.2832 187.297 23.0897 186.551 22.7026C185.815 22.3156 185.187 21.7728 184.668 21.0742C184.158 20.3757 183.766 19.5544 183.493 18.6104C183.228 17.6663 183.096 16.6374 183.096 15.5234ZM186.849 15.2261V15.5234C186.849 16.1842 186.905 16.8026 187.019 17.3784C187.132 17.9543 187.316 18.464 187.571 18.9077C187.826 19.342 188.151 19.6818 188.548 19.9272C188.954 20.1727 189.445 20.2954 190.021 20.2954C190.757 20.2954 191.361 20.1349 191.833 19.814C192.314 19.4836 192.687 19.0352 192.952 18.4688C193.216 17.8929 193.386 17.2463 193.461 16.5288V14.3057C193.424 13.7393 193.325 13.2153 193.164 12.7339C193.013 12.2524 192.796 11.8371 192.513 11.4878C192.239 11.1385 191.899 10.8647 191.493 10.6665C191.087 10.4683 190.606 10.3691 190.049 10.3691C189.473 10.3691 188.982 10.4966 188.576 10.7515C188.17 10.9969 187.84 11.3415 187.585 11.7852C187.33 12.2288 187.141 12.7433 187.019 13.3286C186.905 13.9139 186.849 14.5464 186.849 15.2261ZM211.487 2.38281V23H207.593V2.38281H211.487ZM219.799 11.2896V14.3623H210.468V11.2896H219.799ZM220.89 2.38281V5.45557H210.468V2.38281H220.89ZM227.219 7.67871V23H223.467V7.67871H227.219ZM223.212 3.67139C223.212 3.11442 223.401 2.65186 223.778 2.28369C224.165 1.91553 224.685 1.73145 225.336 1.73145C225.987 1.73145 226.502 1.91553 226.879 2.28369C227.266 2.65186 227.46 3.11442 227.46 3.67139C227.46 4.21891 227.266 4.67676 226.879 5.04492C226.502 5.41309 225.987 5.59717 225.336 5.59717C224.685 5.59717 224.165 5.41309 223.778 5.04492C223.401 4.67676 223.212 4.21891 223.212 3.67139ZM233.719 7.67871L236.452 12.5498L239.227 7.67871H243.291L238.788 15.1836L243.475 23H239.411L236.48 17.8882L233.535 23H229.471L234.144 15.1836L229.669 7.67871H233.719ZM255.823 2.38281V26.8232H253.458V2.38281H255.823ZM281.141 11.1621V14.2349H272.461V11.1621H281.141ZM266.627 16.2314H270.507C270.592 17.0999 270.79 17.8315 271.102 18.4263C271.423 19.021 271.885 19.4741 272.489 19.7856C273.093 20.0877 273.868 20.2388 274.812 20.2388C275.604 20.2388 276.284 20.0877 276.851 19.7856C277.426 19.4741 277.894 19.0257 278.252 18.4404C278.621 17.8551 278.89 17.1471 279.06 16.3164C279.239 15.4857 279.329 14.5417 279.329 13.4844V11.9126C279.329 11.0347 279.267 10.2417 279.145 9.53369C279.022 8.81624 278.833 8.18848 278.578 7.65039C278.333 7.10286 278.026 6.64974 277.658 6.29102C277.29 5.92285 276.86 5.64437 276.369 5.45557C275.878 5.26676 275.331 5.17236 274.727 5.17236C273.764 5.17236 272.985 5.33757 272.39 5.66797C271.795 5.98893 271.352 6.45622 271.059 7.06982C270.766 7.67399 270.578 8.4056 270.493 9.26465H266.613C266.745 7.87695 267.132 6.64502 267.774 5.56885C268.416 4.48324 269.313 3.63363 270.464 3.02002C271.625 2.40641 273.046 2.09961 274.727 2.09961C276.02 2.09961 277.186 2.33089 278.224 2.79346C279.272 3.24658 280.169 3.90267 280.915 4.76172C281.66 5.62077 282.227 6.65446 282.614 7.86279C283.01 9.07113 283.208 10.4305 283.208 11.9409V13.4844C283.208 14.9854 283.015 16.34 282.628 17.5483C282.241 18.7567 281.684 19.7856 280.957 20.6353C280.23 21.4849 279.347 22.141 278.309 22.6035C277.28 23.0661 276.114 23.2974 274.812 23.2974C273.141 23.2974 271.715 22.9953 270.535 22.3911C269.355 21.7775 268.435 20.9421 267.774 19.8848C267.113 18.818 266.731 17.6003 266.627 16.2314ZM296.137 7.67871V10.6382H288.632V7.67871H296.137ZM298.955 7.67871V23H295.216V7.67871H298.955ZM287.697 7.67871H291.393L290.982 15.3252C290.916 16.4486 290.798 17.4351 290.628 18.2847C290.458 19.1248 290.232 19.847 289.949 20.4512C289.666 21.0459 289.321 21.5321 288.915 21.9097C288.509 22.2873 288.037 22.5658 287.499 22.7451C286.97 22.915 286.376 23 285.715 23H284.568L284.525 19.9839L285.063 19.9414C285.394 19.9131 285.677 19.8234 285.913 19.6724C286.159 19.5213 286.366 19.3042 286.536 19.021C286.715 18.7378 286.862 18.3743 286.975 17.9307C287.098 17.4775 287.192 16.9489 287.258 16.3447C287.334 15.7311 287.386 15.0231 287.414 14.2207L287.697 7.67871ZM309.263 23.2832C308.102 23.2832 307.059 23.0944 306.134 22.7168C305.209 22.3392 304.42 21.8153 303.769 21.145C303.127 20.4653 302.632 19.6771 302.282 18.7803C301.942 17.874 301.772 16.9017 301.772 15.8633V15.2969C301.772 14.1169 301.942 13.0454 302.282 12.0825C302.622 11.1102 303.104 10.2747 303.727 9.57617C304.35 8.8776 305.095 8.33952 305.964 7.96191C306.832 7.58431 307.791 7.39551 308.838 7.39551C309.924 7.39551 310.882 7.57959 311.713 7.94775C312.544 8.30648 313.237 8.81624 313.794 9.47705C314.351 10.1379 314.771 10.9308 315.055 11.856C315.338 12.7716 315.479 13.7865 315.479 14.9004V16.4722H303.472V13.895H311.798V13.6118C311.779 13.0171 311.666 12.4743 311.458 11.9834C311.25 11.4831 310.929 11.0866 310.495 10.7939C310.061 10.4919 309.499 10.3408 308.81 10.3408C308.253 10.3408 307.767 10.4635 307.352 10.709C306.946 10.945 306.606 11.2848 306.332 11.7285C306.068 12.1628 305.869 12.682 305.737 13.2861C305.605 13.8903 305.539 14.5605 305.539 15.2969V15.8633C305.539 16.5052 305.624 17.0999 305.794 17.6475C305.973 18.195 306.233 18.6717 306.573 19.0776C306.922 19.4741 307.337 19.7856 307.819 20.0122C308.31 20.2293 308.867 20.3379 309.49 20.3379C310.273 20.3379 310.981 20.1868 311.614 19.8848C312.256 19.5732 312.813 19.1154 313.285 18.5112L315.168 20.4653C314.847 20.9373 314.413 21.3905 313.865 21.8247C313.327 22.259 312.676 22.613 311.911 22.8867C311.146 23.151 310.264 23.2832 309.263 23.2832ZM321.979 7.67871V23H318.241V7.67871H321.979ZM331.962 7.67871L325.208 17.0811H321.229L320.761 13.6543H323.522L327.247 7.67871H331.962ZM327.473 23L323.282 16.4297L326.397 14.4756L332.443 23H327.473ZM341.591 7.67871V23H337.838V7.67871H341.591ZM346.575 7.67871V10.5957H332.939V7.67871H346.575ZM352.508 10.624V28.8906H348.756V7.67871H352.225L352.508 10.624ZM362.35 15.1836V15.481C362.35 16.5949 362.217 17.6286 361.953 18.582C361.698 19.526 361.321 20.3521 360.82 21.0601C360.32 21.7586 359.697 22.3062 358.951 22.7026C358.215 23.0897 357.365 23.2832 356.402 23.2832C355.458 23.2832 354.637 23.1038 353.938 22.7451C353.24 22.377 352.65 21.8577 352.168 21.1875C351.687 20.5173 351.3 19.7384 351.007 18.8511C350.724 17.9543 350.512 16.9772 350.37 15.9199V14.9712C350.512 13.8478 350.724 12.8283 351.007 11.9126C351.3 10.9875 351.687 10.1898 352.168 9.51953C352.65 8.83984 353.235 8.31592 353.924 7.94775C354.623 7.57959 355.439 7.39551 356.374 7.39551C357.346 7.39551 358.201 7.57959 358.937 7.94775C359.683 8.31592 360.311 8.84456 360.82 9.53369C361.33 10.2228 361.712 11.0441 361.967 11.9976C362.222 12.951 362.35 14.013 362.35 15.1836ZM358.597 15.481V15.1836C358.597 14.5039 358.536 13.8761 358.413 13.3003C358.29 12.715 358.102 12.2052 357.847 11.771C357.592 11.3273 357.261 10.9827 356.855 10.7373C356.45 10.4919 355.959 10.3691 355.383 10.3691C354.807 10.3691 354.311 10.4635 353.896 10.6523C353.481 10.8411 353.141 11.1102 352.876 11.4595C352.612 11.8088 352.404 12.2241 352.253 12.7056C352.112 13.1776 352.017 13.7015 351.97 14.2773V16.6279C352.055 17.3265 352.22 17.9543 352.466 18.5112C352.711 19.0682 353.07 19.5119 353.542 19.8423C354.023 20.1727 354.646 20.3379 355.411 20.3379C355.987 20.3379 356.478 20.2104 356.884 19.9556C357.29 19.7007 357.62 19.3514 357.875 18.9077C358.13 18.4546 358.314 17.9354 358.427 17.3501C358.541 16.7648 358.597 16.1418 358.597 15.481ZM364.417 15.4951V15.1978C364.417 14.0744 364.577 13.0407 364.898 12.0967C365.219 11.1432 365.687 10.3172 366.3 9.61865C366.914 8.92008 367.664 8.37728 368.552 7.99023C369.439 7.59375 370.449 7.39551 371.582 7.39551C372.734 7.39551 373.753 7.59375 374.641 7.99023C375.537 8.37728 376.293 8.92008 376.906 9.61865C377.52 10.3172 377.987 11.1432 378.308 12.0967C378.629 13.0407 378.79 14.0744 378.79 15.1978V15.4951C378.79 16.609 378.629 17.6427 378.308 18.5962C377.987 19.5402 377.52 20.3662 376.906 21.0742C376.293 21.7728 375.542 22.3156 374.655 22.7026C373.767 23.0897 372.753 23.2832 371.61 23.2832C370.478 23.2832 369.463 23.0897 368.566 22.7026C367.669 22.3156 366.914 21.7728 366.3 21.0742C365.687 20.3662 365.219 19.5402 364.898 18.5962C364.577 17.6427 364.417 16.609 364.417 15.4951ZM368.155 15.1978V15.4951C368.155 16.1654 368.221 16.7931 368.354 17.3784C368.486 17.9637 368.689 18.4782 368.962 18.9219C369.236 19.3656 369.59 19.7148 370.024 19.9697C370.468 20.2152 370.997 20.3379 371.61 20.3379C372.215 20.3379 372.734 20.2152 373.168 19.9697C373.602 19.7148 373.956 19.3656 374.23 18.9219C374.513 18.4782 374.721 17.9637 374.853 17.3784C374.985 16.7931 375.051 16.1654 375.051 15.4951V15.1978C375.051 14.5369 374.985 13.9186 374.853 13.3428C374.721 12.7575 374.513 12.243 374.23 11.7993C373.956 11.3462 373.597 10.9922 373.154 10.7373C372.72 10.473 372.196 10.3408 371.582 10.3408C370.978 10.3408 370.459 10.473 370.024 10.7373C369.59 10.9922 369.236 11.3462 368.962 11.7993C368.689 12.243 368.486 12.7575 368.354 13.3428C368.221 13.9186 368.155 14.5369 368.155 15.1978ZM391.973 13.9658V16.897H384.114V13.9658H391.973ZM385.289 7.67871V23H381.537V7.67871H385.289ZM394.592 7.67871V23H390.826V7.67871H394.592ZM408.455 13.9658V16.897H400.596V13.9658H408.455ZM401.771 7.67871V23H398.019V7.67871H401.771ZM411.075 7.67871V23H407.308V7.67871H411.075ZM417.135 12.394H421.61C422.969 12.394 424.126 12.6206 425.079 13.0737C426.042 13.5174 426.774 14.1405 427.274 14.9429C427.784 15.7358 428.039 16.6562 428.039 17.7041C428.039 18.4593 427.892 19.1626 427.6 19.814C427.316 20.4559 426.901 21.0176 426.354 21.499C425.806 21.971 425.131 22.3392 424.329 22.6035C423.536 22.8678 422.629 23 421.61 23H414.728V7.67871H418.48V20.0688H421.61C422.261 20.0688 422.78 19.9603 423.167 19.7432C423.564 19.5166 423.847 19.2287 424.017 18.8794C424.196 18.5207 424.286 18.1383 424.286 17.7324C424.286 17.3171 424.196 16.93 424.017 16.5713C423.847 16.2031 423.564 15.9058 423.167 15.6792C422.78 15.4526 422.261 15.3394 421.61 15.3394H417.135V12.394ZM434.326 7.67871V23H430.573V7.67871H434.326ZM441.93 17.6616L447.509 7.67871H451.261V23H447.509V13.0029L441.93 23H438.177V7.67871H441.93V17.6616ZM446.815 1.66064H449.534C449.534 2.45361 449.34 3.1569 448.953 3.77051C448.566 4.38411 448.014 4.86556 447.296 5.21484C446.588 5.55469 445.748 5.72461 444.776 5.72461C443.313 5.72461 442.152 5.34701 441.292 4.5918C440.433 3.83659 440.004 2.85954 440.004 1.66064H442.723C442.723 2.16097 442.878 2.60938 443.19 3.00586C443.501 3.40234 444.03 3.60059 444.776 3.60059C445.522 3.60059 446.046 3.40234 446.348 3.00586C446.659 2.60938 446.815 2.16097 446.815 1.66064ZM472.162 7.67871V10.6382H464.671V7.67871H472.162ZM465.662 7.67871V23H461.91V7.67871H465.662ZM474.994 7.67871V23H471.227V7.67871H474.994ZM477.727 15.4951V15.1978C477.727 14.0744 477.887 13.0407 478.208 12.0967C478.529 11.1432 478.996 10.3172 479.61 9.61865C480.223 8.92008 480.974 8.37728 481.861 7.99023C482.749 7.59375 483.759 7.39551 484.892 7.39551C486.043 7.39551 487.063 7.59375 487.95 7.99023C488.847 8.37728 489.602 8.92008 490.216 9.61865C490.829 10.3172 491.297 11.1432 491.618 12.0967C491.939 13.0407 492.099 14.0744 492.099 15.1978V15.4951C492.099 16.609 491.939 17.6427 491.618 18.5962C491.297 19.5402 490.829 20.3662 490.216 21.0742C489.602 21.7728 488.852 22.3156 487.964 22.7026C487.077 23.0897 486.062 23.2832 484.92 23.2832C483.787 23.2832 482.772 23.0897 481.875 22.7026C480.979 22.3156 480.223 21.7728 479.61 21.0742C478.996 20.3662 478.529 19.5402 478.208 18.5962C477.887 17.6427 477.727 16.609 477.727 15.4951ZM481.465 15.1978V15.4951C481.465 16.1654 481.531 16.7931 481.663 17.3784C481.795 17.9637 481.998 18.4782 482.272 18.9219C482.546 19.3656 482.9 19.7148 483.334 19.9697C483.778 20.2152 484.306 20.3379 484.92 20.3379C485.524 20.3379 486.043 20.2152 486.478 19.9697C486.912 19.7148 487.266 19.3656 487.54 18.9219C487.823 18.4782 488.03 17.9637 488.163 17.3784C488.295 16.7931 488.361 16.1654 488.361 15.4951V15.1978C488.361 14.5369 488.295 13.9186 488.163 13.3428C488.03 12.7575 487.823 12.243 487.54 11.7993C487.266 11.3462 486.907 10.9922 486.463 10.7373C486.029 10.473 485.505 10.3408 484.892 10.3408C484.287 10.3408 483.768 10.473 483.334 10.7373C482.9 10.9922 482.546 11.3462 482.272 11.7993C481.998 12.243 481.795 12.7575 481.663 13.3428C481.531 13.9186 481.465 14.5369 481.465 15.1978ZM504.008 18.582L508.312 7.67871H511.442L505.282 23H502.748L496.602 7.67871H499.746L504.008 18.582ZM498.825 7.67871V23H495.073V7.67871H498.825ZM509.261 23V7.67871H513.014V23H509.261ZM516.072 15.4951V15.1978C516.072 14.0744 516.233 13.0407 516.554 12.0967C516.875 11.1432 517.342 10.3172 517.956 9.61865C518.569 8.92008 519.32 8.37728 520.207 7.99023C521.094 7.59375 522.104 7.39551 523.237 7.39551C524.389 7.39551 525.409 7.59375 526.296 7.99023C527.193 8.37728 527.948 8.92008 528.562 9.61865C529.175 10.3172 529.642 11.1432 529.963 12.0967C530.284 13.0407 530.445 14.0744 530.445 15.1978V15.4951C530.445 16.609 530.284 17.6427 529.963 18.5962C529.642 19.5402 529.175 20.3662 528.562 21.0742C527.948 21.7728 527.197 22.3156 526.31 22.7026C525.423 23.0897 524.408 23.2832 523.266 23.2832C522.133 23.2832 521.118 23.0897 520.221 22.7026C519.324 22.3156 518.569 21.7728 517.956 21.0742C517.342 20.3662 516.875 19.5402 516.554 18.5962C516.233 17.6427 516.072 16.609 516.072 15.4951ZM519.811 15.1978V15.4951C519.811 16.1654 519.877 16.7931 520.009 17.3784C520.141 17.9637 520.344 18.4782 520.618 18.9219C520.891 19.3656 521.245 19.7148 521.68 19.9697C522.123 20.2152 522.652 20.3379 523.266 20.3379C523.87 20.3379 524.389 20.2152 524.823 19.9697C525.257 19.7148 525.611 19.3656 525.885 18.9219C526.168 18.4782 526.376 17.9637 526.508 17.3784C526.64 16.7931 526.707 16.1654 526.707 15.4951V15.1978C526.707 14.5369 526.64 13.9186 526.508 13.3428C526.376 12.7575 526.168 12.243 525.885 11.7993C525.611 11.3462 525.253 10.9922 524.809 10.7373C524.375 10.473 523.851 10.3408 523.237 10.3408C522.633 10.3408 522.114 10.473 521.68 10.7373C521.245 10.9922 520.891 11.3462 520.618 11.7993C520.344 12.243 520.141 12.7575 520.009 13.3428C519.877 13.9186 519.811 14.5369 519.811 15.1978ZM556.344 20.0688L556.075 27.5454H552.605V23H550.821V20.0688H556.344ZM533.135 7.67871H536.874V20.0547H541.433V7.67871H545.186V20.0547H549.731V7.67871H553.483V23H533.135V7.67871ZM569.286 13.9658V16.897H561.427V13.9658H569.286ZM562.603 7.67871V23H558.85V7.67871H562.603ZM571.906 7.67871V23H568.139V7.67871H571.906ZM579.085 17.6616L584.664 7.67871H588.417V23H584.664V13.0029L579.085 23H575.333V7.67871H579.085V17.6616ZM595.808 7.67871V23H592.07V7.67871H595.808ZM605.791 7.67871L599.037 17.0811H595.058L594.59 13.6543H597.352L601.076 7.67871H605.791ZM601.302 23L597.111 16.4297L600.226 14.4756L606.272 23H601.302ZM618.946 10.624V28.8906H615.193V7.67871H618.663L618.946 10.624ZM628.787 15.1836V15.481C628.787 16.5949 628.655 17.6286 628.391 18.582C628.136 19.526 627.758 20.3521 627.258 21.0601C626.757 21.7586 626.134 22.3062 625.389 22.7026C624.652 23.0897 623.803 23.2832 622.84 23.2832C621.896 23.2832 621.075 23.1038 620.376 22.7451C619.677 22.377 619.087 21.8577 618.606 21.1875C618.125 20.5173 617.737 19.7384 617.445 18.8511C617.162 17.9543 616.949 16.9772 616.808 15.9199V14.9712C616.949 13.8478 617.162 12.8283 617.445 11.9126C617.737 10.9875 618.125 10.1898 618.606 9.51953C619.087 8.83984 619.673 8.31592 620.362 7.94775C621.06 7.57959 621.877 7.39551 622.812 7.39551C623.784 7.39551 624.638 7.57959 625.375 7.94775C626.12 8.31592 626.748 8.84456 627.258 9.53369C627.768 10.2228 628.15 11.0441 628.405 11.9976C628.66 12.951 628.787 14.013 628.787 15.1836ZM625.035 15.481V15.1836C625.035 14.5039 624.973 13.8761 624.851 13.3003C624.728 12.715 624.539 12.2052 624.284 11.771C624.029 11.3273 623.699 10.9827 623.293 10.7373C622.887 10.4919 622.396 10.3691 621.82 10.3691C621.244 10.3691 620.749 10.4635 620.333 10.6523C619.918 10.8411 619.578 11.1102 619.314 11.4595C619.05 11.8088 618.842 12.2241 618.691 12.7056C618.549 13.1776 618.455 13.7015 618.408 14.2773V16.6279C618.493 17.3265 618.658 17.9543 618.903 18.5112C619.149 19.0682 619.507 19.5119 619.979 19.8423C620.461 20.1727 621.084 20.3379 621.849 20.3379C622.424 20.3379 622.915 20.2104 623.321 19.9556C623.727 19.7007 624.058 19.3514 624.312 18.9077C624.567 18.4546 624.751 17.9354 624.865 17.3501C624.978 16.7648 625.035 16.1418 625.035 15.481ZM639.959 19.7432V12.6772C639.959 12.158 639.87 11.7096 639.69 11.332C639.511 10.9544 639.237 10.6618 638.869 10.4541C638.501 10.2464 638.034 10.1426 637.467 10.1426C636.967 10.1426 636.528 10.2275 636.15 10.3975C635.782 10.5674 635.499 10.8081 635.301 11.1196C635.103 11.4217 635.003 11.771 635.003 12.1675H631.251C631.251 11.535 631.402 10.9355 631.704 10.3691C632.006 9.79329 632.436 9.28353 632.993 8.83984C633.559 8.38672 634.234 8.03271 635.018 7.77783C635.811 7.52295 636.698 7.39551 637.68 7.39551C638.841 7.39551 639.875 7.59375 640.781 7.99023C641.696 8.37728 642.414 8.96257 642.933 9.74609C643.462 10.5296 643.726 11.5161 643.726 12.7056V19.3892C643.726 20.1538 643.773 20.8099 643.868 21.3574C643.972 21.8955 644.123 22.3628 644.321 22.7593V23H640.512C640.332 22.613 640.195 22.1221 640.101 21.5273C640.007 20.9232 639.959 20.3285 639.959 19.7432ZM640.483 13.6685L640.512 15.8916H638.147C637.562 15.8916 637.047 15.953 636.604 16.0757C636.16 16.189 635.796 16.3589 635.513 16.5854C635.23 16.8026 635.018 17.0669 634.876 17.3784C634.734 17.6805 634.664 18.0251 634.664 18.4121C634.664 18.7897 634.749 19.1296 634.918 19.4316C635.098 19.7337 635.353 19.9744 635.683 20.1538C636.023 20.3237 636.419 20.4087 636.873 20.4087C637.533 20.4087 638.109 20.2765 638.6 20.0122C639.091 19.7384 639.473 19.408 639.747 19.021C640.021 18.634 640.167 18.2658 640.186 17.9165L641.262 19.5308C641.13 19.9178 640.932 20.3285 640.667 20.7627C640.403 21.1969 640.063 21.6029 639.648 21.9805C639.233 22.3581 638.732 22.6696 638.147 22.915C637.562 23.1605 636.882 23.2832 636.108 23.2832C635.117 23.2832 634.229 23.085 633.446 22.6885C632.662 22.292 632.044 21.7492 631.591 21.0601C631.138 20.3709 630.911 19.5874 630.911 18.7095C630.911 17.8976 631.062 17.1802 631.364 16.5571C631.666 15.9341 632.115 15.4102 632.709 14.9854C633.304 14.5511 634.041 14.2254 634.918 14.0083C635.806 13.7817 636.821 13.6685 637.963 13.6685H640.483ZM653.667 15.6934H650.679V13.9092H652.958C653.515 13.9092 653.959 13.8337 654.29 13.6826C654.629 13.5316 654.87 13.3192 655.012 13.0454C655.163 12.7716 655.238 12.4554 655.238 12.0967C655.238 11.7757 655.167 11.4736 655.026 11.1904C654.884 10.8978 654.648 10.6618 654.318 10.4824C653.987 10.2936 653.53 10.1992 652.944 10.1992C652.463 10.1992 652.033 10.2747 651.656 10.4258C651.278 10.5768 650.981 10.7892 650.764 11.063C650.547 11.3368 650.438 11.6624 650.438 12.04H646.686C646.686 11.0771 646.959 10.2511 647.507 9.56201C648.064 8.87288 648.805 8.34424 649.73 7.97607C650.655 7.59847 651.67 7.40967 652.774 7.40967C653.728 7.40967 654.587 7.50879 655.352 7.70703C656.116 7.89583 656.768 8.17904 657.306 8.55664C657.844 8.93424 658.259 9.40153 658.552 9.9585C658.844 10.506 658.991 11.1432 658.991 11.8701C658.991 12.3893 658.868 12.8802 658.623 13.3428C658.377 13.8053 658.023 14.216 657.561 14.5747C657.098 14.924 656.536 15.1978 655.875 15.396C655.224 15.5942 654.488 15.6934 653.667 15.6934ZM650.679 14.6738H653.667C654.582 14.6738 655.385 14.7635 656.074 14.9429C656.772 15.1128 657.358 15.3677 657.83 15.7075C658.302 16.0474 658.656 16.4674 658.892 16.9678C659.137 17.4587 659.26 18.0251 659.26 18.667C659.26 19.3939 659.099 20.0452 658.778 20.6211C658.467 21.1875 658.023 21.6689 657.447 22.0654C656.871 22.4619 656.187 22.764 655.394 22.9717C654.601 23.1794 653.728 23.2832 652.774 23.2832C651.745 23.2832 650.745 23.1133 649.772 22.7734C648.81 22.4336 648.012 21.9097 647.379 21.2017C646.756 20.4937 646.445 19.5827 646.445 18.4688H650.197C650.197 18.8275 650.306 19.1626 650.523 19.4741C650.74 19.7856 651.052 20.0358 651.458 20.2246C651.873 20.404 652.373 20.4937 652.958 20.4937C653.553 20.4937 654.039 20.3993 654.417 20.2104C654.795 20.0216 655.068 19.7715 655.238 19.46C655.418 19.139 655.507 18.8039 655.507 18.4546C655.507 17.9731 655.413 17.5861 655.224 17.2935C655.045 16.9914 654.762 16.7695 654.375 16.6279C653.997 16.4863 653.525 16.4155 652.958 16.4155H650.679V14.6738ZM669.498 16.5146H664.641L664.612 13.98H668.605C669.2 13.98 669.686 13.9186 670.064 13.7959C670.442 13.6732 670.72 13.4891 670.899 13.2437C671.088 12.9982 671.183 12.7008 671.183 12.3516C671.183 12.0495 671.126 11.7899 671.013 11.5728C670.899 11.3462 670.729 11.1621 670.503 11.0205C670.286 10.8789 670.007 10.7751 669.667 10.709C669.337 10.6335 668.95 10.5957 668.506 10.5957H665.972V23H662.219V7.67871H668.506C669.498 7.67871 670.39 7.76839 671.183 7.94775C671.976 8.11768 672.651 8.37728 673.208 8.72656C673.764 9.07585 674.189 9.51953 674.482 10.0576C674.784 10.5863 674.935 11.2093 674.935 11.9268C674.935 12.3988 674.831 12.8424 674.624 13.2578C674.416 13.6732 674.109 14.0413 673.703 14.3623C673.297 14.6833 672.797 14.9476 672.202 15.1553C671.607 15.3535 670.928 15.4762 670.163 15.5234L669.498 16.5146ZM669.498 23H663.635L665.023 20.083H669.498C670.045 20.083 670.498 20.0169 670.857 19.8848C671.216 19.7432 671.48 19.5402 671.65 19.2759C671.829 19.0116 671.919 18.6906 671.919 18.313C671.919 17.9448 671.834 17.6286 671.664 17.3643C671.504 17.0905 671.244 16.8828 670.885 16.7412C670.536 16.5902 670.073 16.5146 669.498 16.5146H665.632L665.66 13.98H670.149L671.14 14.9854C672.16 15.0514 673.005 15.2591 673.675 15.6084C674.345 15.9482 674.845 16.3825 675.176 16.9111C675.506 17.4303 675.671 18.0015 675.671 18.6245C675.671 19.3514 675.535 19.9886 675.261 20.5361C674.987 21.0837 674.586 21.5415 674.057 21.9097C673.528 22.2684 672.882 22.5422 672.117 22.731C671.353 22.9103 670.479 23 669.498 23ZM682.171 17.6616L687.75 7.67871H691.502V23H687.75V13.0029L682.171 23H678.418V7.67871H682.171V17.6616ZM702.335 7.67871V23H698.583V7.67871H702.335ZM707.319 7.67871V10.5957H693.683V7.67871H707.319ZM713.295 17.6616L718.874 7.67871H722.626V23H718.874V13.0029L713.295 23H709.542V7.67871H713.295V17.6616ZM729.282 15.4385H733.119L728.814 23H724.977L729.282 15.4385ZM731.887 7.67871H738.542V23H734.804V10.5957H731.887C731.292 10.5957 730.797 10.7043 730.4 10.9214C730.013 11.1385 729.725 11.417 729.537 11.7568C729.348 12.0872 729.253 12.4271 729.253 12.7764C729.253 13.1162 729.343 13.4466 729.522 13.7676C729.702 14.0885 729.976 14.3529 730.344 14.5605C730.721 14.7682 731.193 14.8721 731.76 14.8721H736.135V17.5059H731.76C730.787 17.5059 729.914 17.3879 729.14 17.1519C728.375 16.9064 727.719 16.5666 727.172 16.1323C726.634 15.6981 726.223 15.1883 725.94 14.603C725.657 14.0083 725.515 13.3617 725.515 12.6631C725.515 11.9456 725.657 11.2848 725.94 10.6807C726.233 10.0765 726.653 9.54785 727.2 9.09473C727.757 8.6416 728.427 8.29232 729.211 8.04688C730.004 7.80143 730.896 7.67871 731.887 7.67871ZM757.602 13.8101H752.334L752.306 11.063H756.823C757.597 11.063 758.244 10.9544 758.763 10.7373C759.282 10.5202 759.674 10.2039 759.938 9.78857C760.212 9.37321 760.349 8.86816 760.349 8.27344C760.349 7.61263 760.222 7.07454 759.967 6.65918C759.721 6.24382 759.334 5.94173 758.806 5.75293C758.277 5.55469 757.607 5.45557 756.795 5.45557H753.595V23H749.701V2.38281H756.795C757.965 2.38281 759.009 2.49609 759.924 2.72266C760.849 2.93978 761.633 3.27962 762.275 3.74219C762.917 4.20475 763.403 4.78532 763.733 5.48389C764.073 6.18245 764.243 7.01318 764.243 7.97607C764.243 8.82568 764.045 9.60921 763.648 10.3267C763.261 11.0347 762.662 11.6105 761.85 12.0542C761.048 12.4979 760.028 12.7528 758.792 12.8188L757.602 13.8101ZM757.432 23H751.188L752.816 19.9414H757.432C758.206 19.9414 758.843 19.814 759.344 19.5591C759.854 19.3042 760.231 18.9549 760.477 18.5112C760.731 18.0581 760.859 17.5389 760.859 16.9536C760.859 16.3117 760.746 15.7547 760.519 15.2827C760.302 14.8107 759.953 14.4473 759.471 14.1924C758.999 13.9375 758.376 13.8101 757.602 13.8101H753.552L753.581 11.063H758.735L759.627 12.125C760.816 12.1344 761.784 12.3704 762.53 12.833C763.285 13.2956 763.842 13.8903 764.201 14.6172C764.559 15.3441 764.739 16.1276 764.739 16.9678C764.739 18.2894 764.451 19.3986 763.875 20.2954C763.309 21.1922 762.478 21.8672 761.383 22.3203C760.297 22.7734 758.98 23 757.432 23ZM776.265 19.7432V12.6772C776.265 12.158 776.175 11.7096 775.996 11.332C775.817 10.9544 775.543 10.6618 775.175 10.4541C774.807 10.2464 774.339 10.1426 773.773 10.1426C773.273 10.1426 772.834 10.2275 772.456 10.3975C772.088 10.5674 771.805 10.8081 771.606 11.1196C771.408 11.4217 771.309 11.771 771.309 12.1675H767.557C767.557 11.535 767.708 10.9355 768.01 10.3691C768.312 9.79329 768.741 9.28353 769.298 8.83984C769.865 8.38672 770.54 8.03271 771.323 7.77783C772.116 7.52295 773.004 7.39551 773.985 7.39551C775.146 7.39551 776.18 7.59375 777.086 7.99023C778.002 8.37728 778.72 8.96257 779.239 9.74609C779.767 10.5296 780.032 11.5161 780.032 12.7056V19.3892C780.032 20.1538 780.079 20.8099 780.173 21.3574C780.277 21.8955 780.428 22.3628 780.626 22.7593V23H776.817C776.638 22.613 776.501 22.1221 776.407 21.5273C776.312 20.9232 776.265 20.3285 776.265 19.7432ZM776.789 13.6685L776.817 15.8916H774.453C773.867 15.8916 773.353 15.953 772.909 16.0757C772.465 16.189 772.102 16.3589 771.819 16.5854C771.536 16.8026 771.323 17.0669 771.182 17.3784C771.04 17.6805 770.969 18.0251 770.969 18.4121C770.969 18.7897 771.054 19.1296 771.224 19.4316C771.403 19.7337 771.658 19.9744 771.989 20.1538C772.329 20.3237 772.725 20.4087 773.178 20.4087C773.839 20.4087 774.415 20.2765 774.906 20.0122C775.397 19.7384 775.779 19.408 776.053 19.021C776.326 18.634 776.473 18.2658 776.492 17.9165L777.568 19.5308C777.436 19.9178 777.237 20.3285 776.973 20.7627C776.709 21.1969 776.369 21.6029 775.954 21.9805C775.538 22.3581 775.038 22.6696 774.453 22.915C773.867 23.1605 773.188 23.2832 772.414 23.2832C771.422 23.2832 770.535 23.085 769.751 22.6885C768.968 22.292 768.35 21.7492 767.896 21.0601C767.443 20.3709 767.217 19.5874 767.217 18.7095C767.217 17.8976 767.368 17.1802 767.67 16.5571C767.972 15.9341 768.42 15.4102 769.015 14.9854C769.61 14.5511 770.346 14.2254 771.224 14.0083C772.111 13.7817 773.126 13.6685 774.269 13.6685H776.789ZM783.43 7.67871H787.183V20.0547H791.728V7.67871H795.495V20.0547H800.04V7.67871H803.778V23H783.43V7.67871ZM811.057 17.6616L816.636 7.67871H820.388V23H816.636V13.0029L811.057 23H807.304V7.67871H811.057V17.6616ZM826.718 7.67871L829.451 12.5498L832.226 7.67871H836.29L831.787 15.1836L836.474 23H832.41L829.479 17.8882L826.534 23H822.47L827.143 15.1836L822.668 7.67871H826.718ZM848.439 7.67871H852.178L852.036 12.9463C851.989 14.5417 851.8 15.9199 851.47 17.0811C851.149 18.2327 850.719 19.2004 850.181 19.9839C849.653 20.7674 849.048 21.3999 848.369 21.8813C847.698 22.3628 846.995 22.7357 846.259 23H845.367L845.353 20.083L845.792 20.0547C846.235 19.5827 846.608 19.1201 846.91 18.667C847.222 18.2044 847.472 17.7088 847.661 17.1802C847.849 16.6515 847.991 16.0474 848.085 15.3677C848.189 14.6785 848.255 13.8714 848.284 12.9463L848.439 7.67871ZM849.445 7.67871H859.371V23H855.633V10.7515H849.445V7.67871ZM844.517 20.0547H861.509V27.5879H857.771V23H848.326V27.5879H844.503L844.517 20.0547ZM870.685 23.2832C869.524 23.2832 868.481 23.0944 867.556 22.7168C866.631 22.3392 865.842 21.8153 865.191 21.145C864.549 20.4653 864.053 19.6771 863.704 18.7803C863.364 17.874 863.194 16.9017 863.194 15.8633V15.2969C863.194 14.1169 863.364 13.0454 863.704 12.0825C864.044 11.1102 864.525 10.2747 865.148 9.57617C865.771 8.8776 866.517 8.33952 867.386 7.96191C868.254 7.58431 869.212 7.39551 870.26 7.39551C871.346 7.39551 872.304 7.57959 873.135 7.94775C873.965 8.30648 874.659 8.81624 875.216 9.47705C875.773 10.1379 876.193 10.9308 876.477 11.856C876.76 12.7716 876.901 13.7865 876.901 14.9004V16.4722H864.894V13.895H873.22V13.6118C873.201 13.0171 873.088 12.4743 872.88 11.9834C872.672 11.4831 872.351 11.0866 871.917 10.7939C871.483 10.4919 870.921 10.3408 870.232 10.3408C869.675 10.3408 869.189 10.4635 868.773 10.709C868.368 10.945 868.028 11.2848 867.754 11.7285C867.49 12.1628 867.291 12.682 867.159 13.2861C867.027 13.8903 866.961 14.5605 866.961 15.2969V15.8633C866.961 16.5052 867.046 17.0999 867.216 17.6475C867.395 18.195 867.655 18.6717 867.995 19.0776C868.344 19.4741 868.759 19.7856 869.241 20.0122C869.732 20.2293 870.289 20.3379 870.912 20.3379C871.695 20.3379 872.403 20.1868 873.036 19.8848C873.678 19.5732 874.235 19.1154 874.707 18.5112L876.59 20.4653C876.269 20.9373 875.835 21.3905 875.287 21.8247C874.749 22.259 874.098 22.613 873.333 22.8867C872.568 23.151 871.686 23.2832 870.685 23.2832ZM886.672 7.67871V23H882.919V7.67871H886.672ZM891.656 7.67871V10.5957H878.02V7.67871H891.656ZM899.713 23.2832C898.552 23.2832 897.509 23.0944 896.584 22.7168C895.659 22.3392 894.871 21.8153 894.219 21.145C893.577 20.4653 893.082 19.6771 892.732 18.7803C892.393 17.874 892.223 16.9017 892.223 15.8633V15.2969C892.223 14.1169 892.393 13.0454 892.732 12.0825C893.072 11.1102 893.554 10.2747 894.177 9.57617C894.8 8.8776 895.546 8.33952 896.414 7.96191C897.283 7.58431 898.241 7.39551 899.289 7.39551C900.374 7.39551 901.332 7.57959 902.163 7.94775C902.994 8.30648 903.688 8.81624 904.245 9.47705C904.802 10.1379 905.222 10.9308 905.505 11.856C905.788 12.7716 905.93 13.7865 905.93 14.9004V16.4722H893.922V13.895H902.248V13.6118C902.229 13.0171 902.116 12.4743 901.908 11.9834C901.701 11.4831 901.38 11.0866 900.945 10.7939C900.511 10.4919 899.949 10.3408 899.26 10.3408C898.703 10.3408 898.217 10.4635 897.802 10.709C897.396 10.945 897.056 11.2848 896.782 11.7285C896.518 12.1628 896.32 12.682 896.188 13.2861C896.055 13.8903 895.989 14.5605 895.989 15.2969V15.8633C895.989 16.5052 896.074 17.0999 896.244 17.6475C896.424 18.195 896.683 18.6717 897.023 19.0776C897.372 19.4741 897.788 19.7856 898.269 20.0122C898.76 20.2293 899.317 20.3379 899.94 20.3379C900.723 20.3379 901.431 20.1868 902.064 19.8848C902.706 19.5732 903.263 19.1154 903.735 18.5112L905.618 20.4653C905.297 20.9373 904.863 21.3905 904.315 21.8247C903.777 22.259 903.126 22.613 902.361 22.8867C901.597 23.151 900.714 23.2832 899.713 23.2832ZM912.217 17.6616L917.796 7.67871H921.548V23H917.796V13.0029L912.217 23H908.464V7.67871H912.217V17.6616ZM917.102 1.66064H919.821C919.821 2.45361 919.627 3.1569 919.24 3.77051C918.853 4.38411 918.301 4.86556 917.583 5.21484C916.875 5.55469 916.035 5.72461 915.063 5.72461C913.6 5.72461 912.439 5.34701 911.58 4.5918C910.721 3.83659 910.291 2.85954 910.291 1.66064H913.01C913.01 2.16097 913.166 2.60938 913.477 3.00586C913.789 3.40234 914.317 3.60059 915.063 3.60059C915.809 3.60059 916.333 3.40234 916.635 3.00586C916.946 2.60938 917.102 2.16097 917.102 1.66064Z" fill="#414141"/>
</svg>
