<svg width="152" height="25" viewBox="0 0 152 25" fill="none" xmlns="http://www.w3.org/2000/svg">
<path d="M5.944 8.096C6.49867 8.58667 7.10667 8.992 7.768 9.312C8.42933 9.61067 9.016 9.87733 9.528 10.112C10.0613 10.3467 10.4027 10.5067 10.552 10.592C10.7013 10.656 11.0533 10.816 11.608 11.072C12.184 11.328 12.5467 11.4987 12.696 11.584C12.8453 11.648 13.176 11.8293 13.688 12.128C14.2 12.4267 14.552 12.672 14.744 12.864C14.936 13.056 15.2133 13.344 15.576 13.728C15.9387 14.0907 16.1947 14.4427 16.344 14.784C16.7493 15.744 16.952 16.7147 16.952 17.696C16.952 19.8933 16.1627 21.5573 14.584 22.688C13.0267 23.8187 10.8827 24.384 8.152 24.384C5.44267 24.384 2.968 23.6373 0.728 22.144C0.792 20.608 1.37867 19.168 2.488 17.824C3.512 18.9547 4.664 19.8827 5.944 20.608C7.224 21.3333 8.38667 21.696 9.432 21.696C10.4987 21.696 11.4373 21.4613 12.248 20.992C12.6533 20.4587 12.856 19.6267 12.856 18.496C12.856 17.6427 12.6107 16.96 12.12 16.448C11.8213 16.1707 11.5653 15.9467 11.352 15.776C11.16 15.584 10.808 15.36 10.296 15.104C9.784 14.8267 8.73867 14.3467 7.16 13.664C5.60267 12.96 4.51467 12.4053 3.896 12C2.12533 10.8053 1.24 9.20533 1.24 7.2C1.24 5.17333 1.99733 3.66933 3.512 2.688C5.048 1.70667 6.94667 1.216 9.208 1.216C11.4693 1.216 13.848 1.74933 16.344 2.816C16.088 4.288 15.544 5.71733 14.712 7.104C13.624 6.10133 12.472 5.29067 11.256 4.672C10.04 4.032 8.94133 3.712 7.96 3.712C6.97867 3.712 6.2 3.872 5.624 4.192C5.28267 4.59733 5.112 5.22667 5.112 6.08C5.112 6.93333 5.38933 7.60533 5.944 8.096ZM28.3135 24.608C25.8388 24.608 23.8868 23.8827 22.4575 22.432C21.0495 20.9813 20.3455 19.072 20.3455 16.704C20.3455 14.336 21.1668 12.3093 22.8095 10.624C24.4522 8.91733 26.5428 8.064 29.0815 8.064C31.6415 8.064 33.5935 8.77867 34.9375 10.208C36.3028 11.616 36.9855 13.5147 36.9855 15.904C36.9855 18.2933 36.1642 20.3413 34.5215 22.048C32.8788 23.7547 30.8095 24.608 28.3135 24.608ZM32.3775 16.704C32.3775 14.6347 32.0788 13.024 31.4815 11.872C30.8842 10.6987 29.8388 10.112 28.3455 10.112C27.3855 10.112 26.6388 10.3467 26.1055 10.816C25.7642 11.3067 25.4868 12.0427 25.2735 13.024C25.0602 14.0053 24.9535 14.9547 24.9535 15.872C24.9535 20.3307 26.3722 22.56 29.2095 22.56C30.0628 22.56 30.7562 22.336 31.2895 21.888C31.6522 21.3973 31.9188 20.6507 32.0895 19.648C32.2815 18.624 32.3775 17.6427 32.3775 16.704ZM46.6623 24.416C44.4863 24.416 43.0143 23.9573 42.2463 23.04C41.4996 22.1013 41.1263 20.5867 41.1263 18.496V14.688C41.1263 12.576 40.8063 10.7947 40.1663 9.344V8.64H45.7343V9.408C45.4143 10.5173 45.2543 11.9573 45.2543 13.728V17.984C45.2543 19.0507 45.4356 19.8827 45.7983 20.48C46.1609 21.056 46.6729 21.344 47.3343 21.344C48.4649 21.344 49.8089 20.8 51.3663 19.712V14.688C51.3663 12.5333 51.0569 10.752 50.4383 9.344V8.64H55.9743V9.408C55.6543 10.5173 55.4943 11.9573 55.4943 13.728V17.984C55.4943 18.944 55.6436 19.8827 55.9423 20.8C56.2623 21.7173 56.6356 22.3573 57.0623 22.72L57.1583 23.424L52.1343 24.704C51.6863 23.936 51.4303 23.072 51.3663 22.112C49.5316 23.648 47.9636 24.416 46.6623 24.416ZM71.707 8.032C73.307 8.032 74.5443 8.53333 75.419 9.536C76.2937 10.5173 76.731 11.9467 76.731 13.824V17.888C76.731 20 77.051 21.8027 77.691 23.296V24H72.059V23.296C72.4217 22.2933 72.603 20.8533 72.603 18.976V14.976C72.603 13.7387 72.4537 12.832 72.155 12.256C71.8563 11.6587 71.2163 11.36 70.235 11.36C69.2537 11.36 68.0057 11.808 66.491 12.704V17.952C66.491 20.192 66.8003 21.9733 67.419 23.296V24H61.819V23.296C62.1817 22.208 62.363 20.6933 62.363 18.752V14.464C62.363 11.9253 61.723 10.336 60.443 9.696V8.992L65.627 8L65.979 8.608C66.1497 9.12 66.267 9.80267 66.331 10.656C67.419 9.78133 68.3577 9.13067 69.147 8.704C69.9577 8.256 70.811 8.032 71.707 8.032ZM88.6855 24.608C86.1682 24.608 84.2588 23.8293 82.9575 22.272C81.6562 20.7147 81.0055 18.7733 81.0055 16.448C81.0055 14.1013 81.8268 12.1173 83.4695 10.496C85.1335 8.85333 87.2348 8.032 89.7735 8.032C90.7122 8.032 91.6188 8.10667 92.4935 8.256V5.376C92.4935 3.968 92.0135 2.82667 91.0535 1.952V1.248L96.3975 0.127998L96.7175 0.831999C96.6535 1.23733 96.6215 2.048 96.6215 3.264V18.208C96.6215 19.1893 96.7602 20.1067 97.0375 20.96C97.3362 21.8133 97.7202 22.4 98.1895 22.72L98.2535 23.424L93.4535 24.672C93.2188 24.0107 93.0055 23.2853 92.8135 22.496C91.4055 23.904 90.0295 24.608 88.6855 24.608ZM85.6135 16C85.6135 17.6213 85.9015 19.04 86.4775 20.256C87.0535 21.4507 87.8855 22.048 88.9735 22.048C90.0615 22.048 91.2348 21.5467 92.4935 20.544V11.584C91.2348 10.7733 89.8588 10.368 88.3655 10.368C87.7255 10.368 87.2242 10.5067 86.8615 10.784C86.0295 11.808 85.6135 13.5467 85.6135 16ZM122.531 4.64C121.337 4.29867 119.929 4.128 118.307 4.128C116.707 4.128 115.662 4.14933 115.171 4.192C115.107 4.81067 115.075 7.168 115.075 11.264L122.435 11.104L121.251 14.112H120.643C119.619 13.8987 118.531 13.792 117.379 13.792C116.227 13.792 115.459 13.8133 115.075 13.856V16.832C115.075 19.8613 115.246 22.016 115.587 23.296V24H109.987V23.296C110.35 21.76 110.531 19.616 110.531 16.864V8.768C110.531 5.99467 110.35 3.84 109.987 2.304V1.6L124.067 1.504L123.139 4.64H122.531ZM131.569 1.056C131.761 1.22667 131.889 1.58933 131.953 2.144C132.038 2.69867 132.081 3.12533 132.081 3.424C132.081 3.72267 132.06 3.98933 132.017 4.224L131.729 4.48C130.79 4.75733 129.564 4.94933 128.049 5.056L127.697 4.896C127.526 4.61867 127.388 4.16 127.281 3.52C127.196 2.88 127.153 2.44267 127.153 2.208C127.153 1.952 127.153 1.78133 127.153 1.696L127.441 1.44C128.593 1.056 129.734 0.863998 130.865 0.863998H131.217L131.569 1.056ZM132.177 11.424V18.272C132.177 20.2987 132.486 21.9733 133.105 23.296V24H127.505V23.296C127.868 22.208 128.049 20.768 128.049 18.976V14.24C128.049 13.0667 127.868 12.096 127.505 11.328C127.142 10.5387 126.684 9.99467 126.129 9.696V8.992L131.985 7.904L132.369 8.544C132.241 9.03467 132.177 9.99467 132.177 11.424ZM151.744 24H145.248V23.52C145.248 22.6667 144.842 21.7067 144.032 20.64L142.72 18.88L141.312 21.024C140.608 22.0907 140.245 22.9227 140.224 23.52V24H134.688V23.296C135.157 23.1467 135.722 22.7947 136.384 22.24C137.045 21.6853 137.61 21.0453 138.08 20.32L140.736 16.192L138.336 12.928C137.696 12.0533 137.002 11.232 136.256 10.464C135.509 9.67467 134.976 9.23733 134.655 9.152V8.448H140.64V8.896C140.64 9.45067 141.152 10.3787 142.176 11.68L143.296 13.184L144.384 11.488C145.109 10.336 145.472 9.46133 145.472 8.864V8.416L150.976 8.448V9.152C149.781 9.536 148.65 10.5707 147.584 12.256L145.28 15.872L148.032 19.488C148.757 20.448 149.482 21.2907 150.208 22.016C150.933 22.7413 151.445 23.168 151.744 23.296V24Z" fill="#053430"/>
</svg>
