<svg width="31" height="32" viewBox="0 0 31 32" fill="none" xmlns="http://www.w3.org/2000/svg">
<circle cx="5.5" cy="2" r="1.5" fill="#F4F4F4" stroke="#2C2C2C"/>
<circle cx="10.5" cy="2" r="1.5" fill="#F4F4F4" stroke="#2C2C2C"/>
<circle cx="15.5" cy="2" r="1.5" fill="#F4F4F4" stroke="#2C2C2C"/>
<circle cx="20.5" cy="2" r="1.5" fill="#F4F4F4" stroke="#2C2C2C"/>
<circle cx="25.5" cy="2" r="1.5" fill="#F4F4F4" stroke="#2C2C2C"/>
<rect x="0.5" y="2.5" width="30" height="29" rx="1.5" fill="#F4F4F4" stroke="#2C2C2C"/>
<rect x="2.1" y="11.1" width="2.8" height="2.8" fill="#F4F4F4" stroke="#2C2C2C" stroke-width="0.2"/>
<rect x="2.1" y="16.1" width="2.8" height="2.8" fill="#F4F4F4" stroke="#2C2C2C" stroke-width="0.2"/>
<rect x="2.1" y="21.1" width="2.8" height="2.8" fill="#F4F4F4" stroke="#2C2C2C" stroke-width="0.2"/>
<rect x="2.1" y="26.1" width="2.8" height="2.8" fill="#F4F4F4" stroke="#2C2C2C" stroke-width="0.2"/>
<rect x="6.1" y="11.1" width="2.8" height="2.8" fill="#F4F4F4" stroke="#2C2C2C" stroke-width="0.2"/>
<rect x="6.1" y="16.1" width="2.8" height="2.8" fill="#F4F4F4" stroke="#2C2C2C" stroke-width="0.2"/>
<rect x="6.1" y="21.1" width="2.8" height="2.8" fill="#F4F4F4" stroke="#2C2C2C" stroke-width="0.2"/>
<rect x="6.1" y="26.1" width="2.8" height="2.8" fill="#F4F4F4" stroke="#2C2C2C" stroke-width="0.2"/>
<rect x="10.1" y="11.1" width="2.8" height="2.8" fill="#F4F4F4" stroke="#2C2C2C" stroke-width="0.2"/>
<rect x="10.1" y="16.1" width="2.8" height="2.8" fill="#F4F4F4" stroke="#2C2C2C" stroke-width="0.2"/>
<rect x="10.1" y="21.1" width="2.8" height="2.8" fill="#F4F4F4" stroke="#2C2C2C" stroke-width="0.2"/>
<rect x="10.1" y="26.1" width="2.8" height="2.8" fill="#F4F4F4" stroke="#2C2C2C" stroke-width="0.2"/>
<rect x="14.1" y="11.1" width="2.8" height="2.8" fill="#F4F4F4" stroke="#2C2C2C" stroke-width="0.2"/>
<rect x="14.1" y="16.1" width="2.8" height="2.8" fill="#F4F4F4" stroke="#2C2C2C" stroke-width="0.2"/>
<rect x="14.1" y="21.1" width="2.8" height="2.8" fill="#F4F4F4" stroke="#2C2C2C" stroke-width="0.2"/>
<rect x="14.1" y="26.1" width="2.8" height="2.8" fill="#F4F4F4" stroke="#2C2C2C" stroke-width="0.2"/>
<rect x="18.1" y="11.1" width="2.8" height="2.8" fill="#F4F4F4" stroke="#2C2C2C" stroke-width="0.2"/>
<rect x="18.1" y="16.1" width="2.8" height="2.8" fill="#F4F4F4" stroke="#2C2C2C" stroke-width="0.2"/>
<rect x="18.1" y="21.1" width="2.8" height="2.8" fill="#F4F4F4" stroke="#2C2C2C" stroke-width="0.2"/>
<rect x="18.1" y="26.1" width="2.8" height="2.8" fill="#F4F4F4" stroke="#2C2C2C" stroke-width="0.2"/>
<rect x="22.1" y="11.1" width="2.8" height="2.8" fill="#F4F4F4" stroke="#2C2C2C" stroke-width="0.2"/>
<rect x="22.1" y="16.1" width="2.8" height="2.8" fill="#F4F4F4" stroke="#2C2C2C" stroke-width="0.2"/>
<rect x="22.1" y="21.1" width="2.8" height="2.8" fill="#F4F4F4" stroke="#2C2C2C" stroke-width="0.2"/>
<rect x="22.1" y="26.1" width="2.8" height="2.8" fill="#F4F4F4" stroke="#2C2C2C" stroke-width="0.2"/>
<rect x="26.1" y="11.1" width="2.8" height="2.8" fill="#F4F4F4" stroke="#2C2C2C" stroke-width="0.2"/>
<rect x="26.1" y="16.1" width="2.8" height="2.8" fill="#F4F4F4" stroke="#2C2C2C" stroke-width="0.2"/>
<rect x="26.1" y="21.1" width="2.8" height="2.8" fill="#F4F4F4" stroke="#2C2C2C" stroke-width="0.2"/>
<rect x="26.1" y="26.1" width="2.8" height="2.8" fill="#F4F4F4" stroke="#2C2C2C" stroke-width="0.2"/>
<path d="M3.75 11.5732V13H3.51465V11.8525L3.16602 11.9707V11.7764L3.72168 11.5732H3.75Z" fill="#2C2C2C"/>
<path d="M4.03711 17.6123C4.03711 17.7008 4.0166 17.7754 3.97559 17.8359C3.93457 17.8965 3.87858 17.9424 3.80762 17.9736C3.7373 18.0042 3.65788 18.0195 3.56934 18.0195C3.48079 18.0195 3.40104 18.0042 3.33008 17.9736C3.25911 17.9424 3.20312 17.8965 3.16211 17.8359C3.12109 17.7754 3.10059 17.7008 3.10059 17.6123C3.10059 17.5537 3.11198 17.5007 3.13477 17.4531C3.15755 17.4049 3.18978 17.3636 3.23145 17.3291C3.27376 17.2939 3.32324 17.2669 3.37988 17.248C3.43717 17.2292 3.49967 17.2197 3.56738 17.2197C3.65723 17.2197 3.73763 17.2363 3.80859 17.2695C3.87956 17.3027 3.93522 17.3486 3.97559 17.4072C4.0166 17.4658 4.03711 17.5342 4.03711 17.6123ZM3.80078 17.6006C3.80078 17.5531 3.79102 17.5114 3.77148 17.4756C3.75195 17.4398 3.72461 17.4121 3.68945 17.3926C3.6543 17.373 3.61361 17.3633 3.56738 17.3633C3.52051 17.3633 3.47982 17.373 3.44531 17.3926C3.41081 17.4121 3.38379 17.4398 3.36426 17.4756C3.34538 17.5114 3.33594 17.5531 3.33594 17.6006C3.33594 17.6488 3.34538 17.6904 3.36426 17.7256C3.38314 17.7601 3.41016 17.7865 3.44531 17.8047C3.48047 17.8229 3.52181 17.832 3.56934 17.832C3.61686 17.832 3.65788 17.8229 3.69238 17.8047C3.72689 17.7865 3.75358 17.7601 3.77246 17.7256C3.79134 17.6904 3.80078 17.6488 3.80078 17.6006ZM4.00488 16.9521C4.00488 17.0231 3.986 17.0863 3.94824 17.1416C3.91113 17.1969 3.8597 17.2406 3.79395 17.2725C3.72819 17.3037 3.65332 17.3193 3.56934 17.3193C3.4847 17.3193 3.40918 17.3037 3.34277 17.2725C3.27702 17.2406 3.22526 17.1969 3.1875 17.1416C3.15039 17.0863 3.13184 17.0231 3.13184 16.9521C3.13184 16.8675 3.15039 16.7962 3.1875 16.7383C3.22526 16.6797 3.27702 16.6351 3.34277 16.6045C3.40853 16.5739 3.48372 16.5586 3.56836 16.5586C3.65299 16.5586 3.72819 16.5739 3.79395 16.6045C3.8597 16.6351 3.91113 16.6797 3.94824 16.7383C3.986 16.7962 4.00488 16.8675 4.00488 16.9521ZM3.76953 16.96C3.76953 16.9176 3.76107 16.8805 3.74414 16.8486C3.72786 16.8161 3.70475 16.7907 3.6748 16.7725C3.64486 16.7542 3.60938 16.7451 3.56836 16.7451C3.52734 16.7451 3.49186 16.7539 3.46191 16.7715C3.43197 16.7891 3.40885 16.8138 3.39258 16.8457C3.3763 16.8776 3.36816 16.9157 3.36816 16.96C3.36816 17.0036 3.3763 17.0417 3.39258 17.0742C3.40885 17.1061 3.43197 17.1312 3.46191 17.1494C3.49251 17.1676 3.52832 17.1768 3.56934 17.1768C3.61035 17.1768 3.64583 17.1676 3.67578 17.1494C3.70573 17.1312 3.72884 17.1061 3.74512 17.0742C3.76139 17.0417 3.76953 17.0036 3.76953 16.96Z" fill="#2C2C2C"/>
<path d="M8.06055 12.8125V13H7.10742V12.8389L7.57031 12.334C7.62109 12.2767 7.66113 12.2272 7.69043 12.1855C7.71973 12.1439 7.74023 12.1064 7.75195 12.0732C7.76432 12.0394 7.77051 12.0065 7.77051 11.9746C7.77051 11.9297 7.76204 11.8903 7.74512 11.8564C7.72884 11.8219 7.70475 11.7949 7.67285 11.7754C7.64095 11.7552 7.60221 11.7451 7.55664 11.7451C7.50391 11.7451 7.45964 11.7565 7.42383 11.7793C7.38802 11.8021 7.361 11.8337 7.34277 11.874C7.32454 11.9137 7.31543 11.9593 7.31543 12.0107H7.08008C7.08008 11.9281 7.09896 11.8525 7.13672 11.7842C7.17448 11.7152 7.22917 11.6605 7.30078 11.6201C7.3724 11.5791 7.45866 11.5586 7.55957 11.5586C7.65462 11.5586 7.73535 11.5745 7.80176 11.6064C7.86816 11.6383 7.91862 11.6836 7.95312 11.7422C7.98828 11.8008 8.00586 11.8701 8.00586 11.9502C8.00586 11.9945 7.9987 12.0384 7.98438 12.082C7.97005 12.1257 7.94954 12.1693 7.92285 12.2129C7.89681 12.2559 7.86589 12.2992 7.83008 12.3428C7.79427 12.3857 7.75488 12.4294 7.71191 12.4736L7.4043 12.8125H8.06055Z" fill="#2C2C2C"/>
<path d="M7.29688 17.8145H7.31641C7.40625 17.8145 7.48112 17.8027 7.54102 17.7793C7.60156 17.7552 7.64974 17.722 7.68555 17.6797C7.72135 17.6374 7.74707 17.5876 7.7627 17.5303C7.77832 17.473 7.78613 17.4108 7.78613 17.3438V17.0986C7.78613 17.0407 7.77995 16.9899 7.76758 16.9463C7.75586 16.902 7.73893 16.8652 7.7168 16.8359C7.69531 16.806 7.67025 16.7835 7.6416 16.7686C7.61361 16.7536 7.58333 16.7461 7.55078 16.7461C7.51497 16.7461 7.48275 16.7542 7.4541 16.7705C7.42611 16.7861 7.40234 16.8079 7.38281 16.8359C7.36393 16.8633 7.34928 16.8955 7.33887 16.9326C7.3291 16.9691 7.32422 17.0081 7.32422 17.0498C7.32422 17.0889 7.32878 17.1266 7.33789 17.1631C7.34766 17.1989 7.36198 17.2308 7.38086 17.2588C7.39974 17.2868 7.4235 17.3089 7.45215 17.3252C7.48079 17.3415 7.51432 17.3496 7.55273 17.3496C7.58919 17.3496 7.62272 17.3428 7.65332 17.3291C7.68392 17.3148 7.71061 17.2956 7.7334 17.2715C7.75618 17.2474 7.77409 17.2204 7.78711 17.1904C7.80013 17.1605 7.80729 17.1299 7.80859 17.0986L7.89844 17.126C7.89844 17.1755 7.88802 17.2243 7.86719 17.2725C7.84701 17.32 7.81868 17.3636 7.78223 17.4033C7.74642 17.4424 7.70443 17.4736 7.65625 17.4971C7.60872 17.5205 7.55697 17.5322 7.50098 17.5322C7.43327 17.5322 7.37337 17.5195 7.32129 17.4941C7.26986 17.4681 7.22689 17.4329 7.19238 17.3887C7.15853 17.3444 7.13314 17.2936 7.11621 17.2363C7.09928 17.179 7.09082 17.1188 7.09082 17.0557C7.09082 16.9873 7.10124 16.9232 7.12207 16.8633C7.1429 16.8034 7.17318 16.7507 7.21289 16.7051C7.2526 16.6589 7.30078 16.623 7.35742 16.5977C7.41471 16.5716 7.47949 16.5586 7.55176 16.5586C7.62858 16.5586 7.69596 16.5736 7.75391 16.6035C7.81185 16.6335 7.86068 16.6748 7.90039 16.7275C7.9401 16.7803 7.97005 16.8415 7.99023 16.9111C8.01042 16.9808 8.02051 17.0557 8.02051 17.1357V17.2188C8.02051 17.3027 8.01302 17.3838 7.99805 17.4619C7.98307 17.5394 7.95866 17.6113 7.9248 17.6777C7.8916 17.7435 7.84766 17.8014 7.79297 17.8516C7.73893 17.901 7.67253 17.9398 7.59375 17.9678C7.51562 17.9951 7.42383 18.0088 7.31836 18.0088H7.29688V17.8145Z" fill="#2C2C2C"/>
<path d="M11.3838 12.1826H11.5244C11.5791 12.1826 11.6243 12.1732 11.6602 12.1543C11.6966 12.1354 11.7236 12.1094 11.7412 12.0762C11.7588 12.043 11.7676 12.0049 11.7676 11.9619C11.7676 11.917 11.7594 11.8786 11.7432 11.8467C11.7275 11.8141 11.7035 11.7891 11.6709 11.7715C11.639 11.7539 11.5983 11.7451 11.5488 11.7451C11.5072 11.7451 11.4694 11.7536 11.4355 11.7705C11.4023 11.7868 11.376 11.8102 11.3564 11.8408C11.3369 11.8708 11.3271 11.9066 11.3271 11.9482H11.0908C11.0908 11.8727 11.1107 11.8057 11.1504 11.7471C11.1901 11.6885 11.2441 11.6426 11.3125 11.6094C11.3815 11.5755 11.459 11.5586 11.5449 11.5586C11.6367 11.5586 11.7168 11.5739 11.7852 11.6045C11.8542 11.6344 11.9079 11.6794 11.9463 11.7393C11.9847 11.7992 12.0039 11.8734 12.0039 11.9619C12.0039 12.0023 11.9945 12.0433 11.9756 12.085C11.9567 12.1266 11.9287 12.1647 11.8916 12.1992C11.8545 12.2331 11.8083 12.2607 11.7529 12.2822C11.6976 12.3031 11.6335 12.3135 11.5605 12.3135H11.3838V12.1826ZM11.3838 12.3662V12.2373H11.5605C11.6439 12.2373 11.7148 12.2471 11.7734 12.2666C11.8327 12.2861 11.8809 12.3132 11.918 12.3477C11.9551 12.3815 11.9821 12.4202 11.999 12.4639C12.0166 12.5075 12.0254 12.5537 12.0254 12.6025C12.0254 12.6689 12.0133 12.7282 11.9893 12.7803C11.9658 12.8317 11.9323 12.8753 11.8887 12.9111C11.8451 12.9469 11.7939 12.974 11.7354 12.9922C11.6774 13.0104 11.6143 13.0195 11.5459 13.0195C11.4847 13.0195 11.4261 13.0111 11.3701 12.9941C11.3141 12.9772 11.264 12.9521 11.2197 12.9189C11.1755 12.8851 11.1403 12.8431 11.1143 12.793C11.0889 12.7422 11.0762 12.6836 11.0762 12.6172H11.3115C11.3115 12.6595 11.3213 12.6969 11.3408 12.7295C11.361 12.7614 11.389 12.7865 11.4248 12.8047C11.4613 12.8229 11.5029 12.832 11.5498 12.832C11.5993 12.832 11.6419 12.8232 11.6777 12.8057C11.7135 12.7881 11.7409 12.762 11.7598 12.7275C11.7793 12.693 11.7891 12.6514 11.7891 12.6025C11.7891 12.5472 11.7783 12.5023 11.7568 12.4678C11.7354 12.4333 11.7048 12.4079 11.665 12.3916C11.6253 12.3747 11.5785 12.3662 11.5244 12.3662H11.3838Z" fill="#2C2C2C"/>
<path d="M11.0498 16.5732V18H10.8145V16.8525L10.4658 16.9707V16.7764L11.0215 16.5732H11.0498ZM12.4707 17.1699V17.4023C12.4707 17.5137 12.4596 17.6087 12.4375 17.6875C12.416 17.7656 12.3848 17.8291 12.3438 17.8779C12.3027 17.9268 12.2536 17.9626 12.1963 17.9854C12.1396 18.0081 12.0762 18.0195 12.0059 18.0195C11.9499 18.0195 11.8978 18.0124 11.8496 17.998C11.8021 17.9837 11.7591 17.9613 11.7207 17.9307C11.6823 17.9001 11.6494 17.8607 11.6221 17.8125C11.5954 17.7637 11.5745 17.7054 11.5596 17.6377C11.5452 17.57 11.5381 17.4915 11.5381 17.4023V17.1699C11.5381 17.0579 11.5492 16.9635 11.5713 16.8867C11.5934 16.8092 11.625 16.7464 11.666 16.6982C11.707 16.6494 11.7559 16.6139 11.8125 16.5918C11.8698 16.5697 11.9336 16.5586 12.0039 16.5586C12.0605 16.5586 12.1126 16.5658 12.1602 16.5801C12.2083 16.5938 12.2513 16.6156 12.2891 16.6455C12.3275 16.6755 12.36 16.7145 12.3867 16.7627C12.4141 16.8102 12.4349 16.8678 12.4492 16.9355C12.4635 17.0026 12.4707 17.0807 12.4707 17.1699ZM12.2354 17.4355V17.1348C12.2354 17.0781 12.2321 17.0283 12.2256 16.9854C12.2191 16.9417 12.2093 16.9049 12.1963 16.875C12.1839 16.8444 12.1683 16.8197 12.1494 16.8008C12.1305 16.7812 12.109 16.7673 12.085 16.7588C12.0609 16.7497 12.0339 16.7451 12.0039 16.7451C11.9674 16.7451 11.9349 16.7523 11.9062 16.7666C11.8776 16.7803 11.8535 16.8024 11.834 16.833C11.8145 16.8636 11.7995 16.904 11.7891 16.9541C11.7793 17.0036 11.7744 17.0638 11.7744 17.1348V17.4355C11.7744 17.4928 11.7777 17.5433 11.7842 17.5869C11.7907 17.6305 11.8005 17.668 11.8135 17.6992C11.8265 17.7298 11.8421 17.7552 11.8604 17.7754C11.8792 17.7949 11.9007 17.8092 11.9248 17.8184C11.9495 17.8275 11.9766 17.832 12.0059 17.832C12.043 17.832 12.0758 17.8249 12.1045 17.8105C12.1331 17.7962 12.1572 17.7734 12.1768 17.7422C12.1963 17.7103 12.2109 17.6689 12.2207 17.6182C12.2305 17.5674 12.2354 17.5065 12.2354 17.4355Z" fill="#2C2C2C"/>
<path d="M11.0498 21.5732V23H10.8145V21.8525L10.4658 21.9707V21.7764L11.0215 21.5732H11.0498ZM12.4883 21.5781V21.707L11.9199 23H11.6719L12.2393 21.7656H11.5029V21.5781H12.4883Z" fill="#2C2C2C"/>
<path d="M7.0498 21.5732V23H6.81445V21.8525L6.46582 21.9707V21.7764L7.02148 21.5732H7.0498ZM8.25488 21.5693H8.28418V21.7617H8.26758C8.18359 21.7617 8.111 21.7747 8.0498 21.8008C7.98926 21.8268 7.93945 21.8626 7.90039 21.9082C7.86133 21.9538 7.83203 22.0072 7.8125 22.0684C7.79362 22.1289 7.78418 22.1934 7.78418 22.2617V22.4854C7.78418 22.542 7.79036 22.5921 7.80273 22.6357C7.8151 22.6787 7.83236 22.7148 7.85449 22.7441C7.87728 22.7728 7.90332 22.7946 7.93262 22.8096C7.96191 22.8245 7.99349 22.832 8.02734 22.832C8.0625 22.832 8.0944 22.8249 8.12305 22.8105C8.15169 22.7956 8.17611 22.7751 8.19629 22.749C8.21647 22.723 8.23177 22.6921 8.24219 22.6562C8.2526 22.6204 8.25781 22.5814 8.25781 22.5391C8.25781 22.4987 8.2526 22.4609 8.24219 22.4258C8.23242 22.39 8.21777 22.3587 8.19824 22.332C8.17871 22.3047 8.1543 22.2835 8.125 22.2686C8.09635 22.2529 8.06315 22.2451 8.02539 22.2451C7.97852 22.2451 7.93587 22.2562 7.89746 22.2783C7.8597 22.3005 7.8291 22.3294 7.80566 22.3652C7.78288 22.4004 7.77051 22.4378 7.76855 22.4775L7.67871 22.4482C7.68392 22.3877 7.69727 22.3333 7.71875 22.2852C7.74089 22.237 7.76986 22.196 7.80566 22.1621C7.84147 22.1283 7.88281 22.1025 7.92969 22.085C7.97721 22.0667 8.0293 22.0576 8.08594 22.0576C8.15495 22.0576 8.21484 22.0706 8.26562 22.0967C8.31641 22.1227 8.3584 22.1582 8.3916 22.2031C8.42546 22.2474 8.45052 22.2982 8.4668 22.3555C8.48372 22.4121 8.49219 22.4714 8.49219 22.5332C8.49219 22.6016 8.48177 22.6654 8.46094 22.7246C8.4401 22.7832 8.40951 22.8346 8.36914 22.8789C8.32943 22.9232 8.28092 22.9577 8.22363 22.9824C8.16699 23.0072 8.10254 23.0195 8.03027 23.0195C7.9541 23.0195 7.88607 23.0049 7.82617 22.9756C7.76693 22.9463 7.71647 22.9059 7.6748 22.8545C7.63379 22.8031 7.60254 22.7438 7.58105 22.6768C7.55957 22.6097 7.54883 22.5387 7.54883 22.4639V22.3662C7.54883 22.2581 7.5625 22.1562 7.58984 22.0605C7.61719 21.9642 7.65918 21.8792 7.71582 21.8057C7.77311 21.7321 7.84635 21.6745 7.93555 21.6328C8.02474 21.5905 8.13118 21.5693 8.25488 21.5693Z" fill="#2C2C2C"/>
<path d="M3.0498 21.5732V23H2.81445V21.8525L2.46582 21.9707V21.7764L3.02148 21.5732H3.0498ZM3.79102 22.3389L3.60352 22.293L3.68066 21.5781H4.44727V21.7773H3.87598L3.83691 22.126C3.85905 22.113 3.88965 22.1003 3.92871 22.0879C3.96777 22.0749 4.01237 22.0684 4.0625 22.0684C4.12956 22.0684 4.18945 22.0794 4.24219 22.1016C4.29557 22.123 4.34082 22.1546 4.37793 22.1963C4.41504 22.2373 4.44336 22.2874 4.46289 22.3467C4.48242 22.4053 4.49219 22.4714 4.49219 22.5449C4.49219 22.6107 4.48242 22.6722 4.46289 22.7295C4.44401 22.7868 4.41536 22.8372 4.37695 22.8809C4.33854 22.9245 4.29004 22.9587 4.23145 22.9834C4.1735 23.0075 4.10482 23.0195 4.02539 23.0195C3.96615 23.0195 3.90918 23.0111 3.85449 22.9941C3.80046 22.9766 3.75195 22.9508 3.70898 22.917C3.66602 22.8825 3.63151 22.8402 3.60547 22.79C3.57943 22.7393 3.56445 22.681 3.56055 22.6152H3.79102C3.79688 22.6615 3.80957 22.7008 3.8291 22.7334C3.84928 22.7653 3.87598 22.7897 3.90918 22.8066C3.94238 22.8236 3.98079 22.832 4.02441 22.832C4.06413 22.832 4.09831 22.8252 4.12695 22.8115C4.1556 22.7972 4.17936 22.777 4.19824 22.751C4.21777 22.7243 4.2321 22.693 4.24121 22.6572C4.25098 22.6214 4.25586 22.5817 4.25586 22.5381C4.25586 22.4964 4.25033 22.4583 4.23926 22.4238C4.22884 22.3893 4.21289 22.3594 4.19141 22.334C4.17057 22.3086 4.14421 22.2891 4.1123 22.2754C4.0804 22.2611 4.04362 22.2539 4.00195 22.2539C3.94596 22.2539 3.90299 22.262 3.87305 22.2783C3.84375 22.2946 3.81641 22.3148 3.79102 22.3389Z" fill="#2C2C2C"/>
<path d="M11.3604 27.8125V28H10.4072V27.8389L10.8701 27.334C10.9209 27.2767 10.9609 27.2272 10.9902 27.1855C11.0195 27.1439 11.04 27.1064 11.0518 27.0732C11.0641 27.0394 11.0703 27.0065 11.0703 26.9746C11.0703 26.9297 11.0618 26.8903 11.0449 26.8564C11.0286 26.8219 11.0046 26.7949 10.9727 26.7754C10.9408 26.7552 10.902 26.7451 10.8564 26.7451C10.8037 26.7451 10.7594 26.7565 10.7236 26.7793C10.6878 26.8021 10.6608 26.8337 10.6426 26.874C10.6243 26.9137 10.6152 26.9593 10.6152 27.0107H10.3799C10.3799 26.9281 10.3988 26.8525 10.4365 26.7842C10.4743 26.7152 10.529 26.6605 10.6006 26.6201C10.6722 26.5791 10.7585 26.5586 10.8594 26.5586C10.9544 26.5586 11.0352 26.5745 11.1016 26.6064C11.168 26.6383 11.2184 26.6836 11.2529 26.7422C11.2881 26.8008 11.3057 26.8701 11.3057 26.9502C11.3057 26.9945 11.2985 27.0384 11.2842 27.082C11.2699 27.1257 11.2493 27.1693 11.2227 27.2129C11.1966 27.2559 11.1657 27.2992 11.1299 27.3428C11.0941 27.3857 11.0547 27.4294 11.0117 27.4736L10.7041 27.8125H11.3604ZM12.5234 27.4932V27.6807H11.498L11.4902 27.5391L12.1035 26.5781H12.292L12.0879 26.9277L11.7354 27.4932H12.5234ZM12.3457 26.5781V28H12.1104V26.5781H12.3457Z" fill="#2C2C2C"/>
<path d="M7.36035 27.8125V28H6.40723V27.8389L6.87012 27.334C6.9209 27.2767 6.96094 27.2272 6.99023 27.1855C7.01953 27.1439 7.04004 27.1064 7.05176 27.0732C7.06413 27.0394 7.07031 27.0065 7.07031 26.9746C7.07031 26.9297 7.06185 26.8903 7.04492 26.8564C7.02865 26.8219 7.00456 26.7949 6.97266 26.7754C6.94076 26.7552 6.90202 26.7451 6.85645 26.7451C6.80371 26.7451 6.75944 26.7565 6.72363 26.7793C6.68783 26.8021 6.66081 26.8337 6.64258 26.874C6.62435 26.9137 6.61523 26.9593 6.61523 27.0107H6.37988C6.37988 26.9281 6.39876 26.8525 6.43652 26.7842C6.47428 26.7152 6.52897 26.6605 6.60059 26.6201C6.6722 26.5791 6.75846 26.5586 6.85938 26.5586C6.95443 26.5586 7.03516 26.5745 7.10156 26.6064C7.16797 26.6383 7.21842 26.6836 7.25293 26.7422C7.28809 26.8008 7.30566 26.8701 7.30566 26.9502C7.30566 26.9945 7.2985 27.0384 7.28418 27.082C7.26986 27.1257 7.24935 27.1693 7.22266 27.2129C7.19661 27.2559 7.16569 27.2992 7.12988 27.3428C7.09408 27.3857 7.05469 27.4294 7.01172 27.4736L6.7041 27.8125H7.36035ZM7.82031 27.1826H7.96094C8.01562 27.1826 8.06087 27.1732 8.09668 27.1543C8.13314 27.1354 8.16016 27.1094 8.17773 27.0762C8.19531 27.043 8.2041 27.0049 8.2041 26.9619C8.2041 26.917 8.19596 26.8786 8.17969 26.8467C8.16406 26.8141 8.13997 26.7891 8.10742 26.7715C8.07552 26.7539 8.03483 26.7451 7.98535 26.7451C7.94368 26.7451 7.90592 26.7536 7.87207 26.7705C7.83887 26.7868 7.8125 26.8102 7.79297 26.8408C7.77344 26.8708 7.76367 26.9066 7.76367 26.9482H7.52734C7.52734 26.8727 7.5472 26.8057 7.58691 26.7471C7.62663 26.6885 7.68066 26.6426 7.74902 26.6094C7.81803 26.5755 7.89551 26.5586 7.98145 26.5586C8.07324 26.5586 8.15332 26.5739 8.22168 26.6045C8.29069 26.6344 8.3444 26.6794 8.38281 26.7393C8.42122 26.7992 8.44043 26.8734 8.44043 26.9619C8.44043 27.0023 8.43099 27.0433 8.41211 27.085C8.39323 27.1266 8.36523 27.1647 8.32812 27.1992C8.29102 27.2331 8.24479 27.2607 8.18945 27.2822C8.13411 27.3031 8.06999 27.3135 7.99707 27.3135H7.82031V27.1826ZM7.82031 27.3662V27.2373H7.99707C8.0804 27.2373 8.15137 27.2471 8.20996 27.2666C8.26921 27.2861 8.31738 27.3132 8.35449 27.3477C8.3916 27.3815 8.41862 27.4202 8.43555 27.4639C8.45312 27.5075 8.46191 27.5537 8.46191 27.6025C8.46191 27.6689 8.44987 27.7282 8.42578 27.7803C8.40234 27.8317 8.36882 27.8753 8.3252 27.9111C8.28158 27.9469 8.23047 27.974 8.17188 27.9922C8.11393 28.0104 8.05078 28.0195 7.98242 28.0195C7.92122 28.0195 7.86263 28.0111 7.80664 27.9941C7.75065 27.9772 7.70052 27.9521 7.65625 27.9189C7.61198 27.8851 7.57682 27.8431 7.55078 27.793C7.52539 27.7422 7.5127 27.6836 7.5127 27.6172H7.74805C7.74805 27.6595 7.75781 27.6969 7.77734 27.7295C7.79753 27.7614 7.82552 27.7865 7.86133 27.8047C7.89779 27.8229 7.93945 27.832 7.98633 27.832C8.03581 27.832 8.07845 27.8232 8.11426 27.8057C8.15007 27.7881 8.17741 27.762 8.19629 27.7275C8.21582 27.693 8.22559 27.6514 8.22559 27.6025C8.22559 27.5472 8.21484 27.5023 8.19336 27.4678C8.17188 27.4333 8.14128 27.4079 8.10156 27.3916C8.06185 27.3747 8.01497 27.3662 7.96094 27.3662H7.82031Z" fill="#2C2C2C"/>
<path d="M3.36035 27.8125V28H2.40723V27.8389L2.87012 27.334C2.9209 27.2767 2.96094 27.2272 2.99023 27.1855C3.01953 27.1439 3.04004 27.1064 3.05176 27.0732C3.06413 27.0394 3.07031 27.0065 3.07031 26.9746C3.07031 26.9297 3.06185 26.8903 3.04492 26.8564C3.02865 26.8219 3.00456 26.7949 2.97266 26.7754C2.94076 26.7552 2.90202 26.7451 2.85645 26.7451C2.80371 26.7451 2.75944 26.7565 2.72363 26.7793C2.68783 26.8021 2.66081 26.8337 2.64258 26.874C2.62435 26.9137 2.61523 26.9593 2.61523 27.0107H2.37988C2.37988 26.9281 2.39876 26.8525 2.43652 26.7842C2.47428 26.7152 2.52897 26.6605 2.60059 26.6201C2.6722 26.5791 2.75846 26.5586 2.85938 26.5586C2.95443 26.5586 3.03516 26.5745 3.10156 26.6064C3.16797 26.6383 3.21842 26.6836 3.25293 26.7422C3.28809 26.8008 3.30566 26.8701 3.30566 26.9502C3.30566 26.9945 3.2985 27.0384 3.28418 27.082C3.26986 27.1257 3.24935 27.1693 3.22266 27.2129C3.19661 27.2559 3.16569 27.2992 3.12988 27.3428C3.09408 27.3857 3.05469 27.4294 3.01172 27.4736L2.7041 27.8125H3.36035ZM4.49707 27.8125V28H3.54395V27.8389L4.00684 27.334C4.05762 27.2767 4.09766 27.2272 4.12695 27.1855C4.15625 27.1439 4.17676 27.1064 4.18848 27.0732C4.20085 27.0394 4.20703 27.0065 4.20703 26.9746C4.20703 26.9297 4.19857 26.8903 4.18164 26.8564C4.16536 26.8219 4.14128 26.7949 4.10938 26.7754C4.07747 26.7552 4.03874 26.7451 3.99316 26.7451C3.94043 26.7451 3.89616 26.7565 3.86035 26.7793C3.82454 26.8021 3.79753 26.8337 3.7793 26.874C3.76107 26.9137 3.75195 26.9593 3.75195 27.0107H3.5166C3.5166 26.9281 3.53548 26.8525 3.57324 26.7842C3.611 26.7152 3.66569 26.6605 3.7373 26.6201C3.80892 26.5791 3.89518 26.5586 3.99609 26.5586C4.09115 26.5586 4.17188 26.5745 4.23828 26.6064C4.30469 26.6383 4.35514 26.6836 4.38965 26.7422C4.4248 26.8008 4.44238 26.8701 4.44238 26.9502C4.44238 26.9945 4.43522 27.0384 4.4209 27.082C4.40658 27.1257 4.38607 27.1693 4.35938 27.2129C4.33333 27.2559 4.30241 27.2992 4.2666 27.3428C4.23079 27.3857 4.19141 27.4294 4.14844 27.4736L3.84082 27.8125H4.49707Z" fill="#2C2C2C"/>
<path d="M15.0498 16.5732V18H14.8145V16.8525L14.4658 16.9707V16.7764L15.0215 16.5732H15.0498ZM16.1865 16.5732V18H15.9512V16.8525L15.6025 16.9707V16.7764L16.1582 16.5732H16.1865Z" fill="#2C2C2C"/>
<path d="M15.0498 21.5732V23H14.8145V21.8525L14.4658 21.9707V21.7764L15.0215 21.5732H15.0498ZM16.4736 22.6123C16.4736 22.7008 16.4531 22.7754 16.4121 22.8359C16.3711 22.8965 16.3151 22.9424 16.2441 22.9736C16.1738 23.0042 16.0944 23.0195 16.0059 23.0195C15.9173 23.0195 15.8376 23.0042 15.7666 22.9736C15.6956 22.9424 15.6396 22.8965 15.5986 22.8359C15.5576 22.7754 15.5371 22.7008 15.5371 22.6123C15.5371 22.5537 15.5485 22.5007 15.5713 22.4531C15.5941 22.4049 15.6263 22.3636 15.668 22.3291C15.7103 22.2939 15.7598 22.2669 15.8164 22.248C15.8737 22.2292 15.9362 22.2197 16.0039 22.2197C16.0938 22.2197 16.1742 22.2363 16.2451 22.2695C16.3161 22.3027 16.3717 22.3486 16.4121 22.4072C16.4531 22.4658 16.4736 22.5342 16.4736 22.6123ZM16.2373 22.6006C16.2373 22.5531 16.2275 22.5114 16.208 22.4756C16.1885 22.4398 16.1611 22.4121 16.126 22.3926C16.0908 22.373 16.0501 22.3633 16.0039 22.3633C15.957 22.3633 15.9163 22.373 15.8818 22.3926C15.8473 22.4121 15.8203 22.4398 15.8008 22.4756C15.7819 22.5114 15.7725 22.5531 15.7725 22.6006C15.7725 22.6488 15.7819 22.6904 15.8008 22.7256C15.8197 22.7601 15.8467 22.7865 15.8818 22.8047C15.917 22.8229 15.9583 22.832 16.0059 22.832C16.0534 22.832 16.0944 22.8229 16.1289 22.8047C16.1634 22.7865 16.1901 22.7601 16.209 22.7256C16.2279 22.6904 16.2373 22.6488 16.2373 22.6006ZM16.4414 21.9521C16.4414 22.0231 16.4225 22.0863 16.3848 22.1416C16.3477 22.1969 16.2962 22.2406 16.2305 22.2725C16.1647 22.3037 16.0898 22.3193 16.0059 22.3193C15.9212 22.3193 15.8457 22.3037 15.7793 22.2725C15.7135 22.2406 15.6618 22.1969 15.624 22.1416C15.5869 22.0863 15.5684 22.0231 15.5684 21.9521C15.5684 21.8675 15.5869 21.7962 15.624 21.7383C15.6618 21.6797 15.7135 21.6351 15.7793 21.6045C15.8451 21.5739 15.9202 21.5586 16.0049 21.5586C16.0895 21.5586 16.1647 21.5739 16.2305 21.6045C16.2962 21.6351 16.3477 21.6797 16.3848 21.7383C16.4225 21.7962 16.4414 21.8675 16.4414 21.9521ZM16.2061 21.96C16.2061 21.9176 16.1976 21.8805 16.1807 21.8486C16.1644 21.8161 16.1413 21.7907 16.1113 21.7725C16.0814 21.7542 16.0459 21.7451 16.0049 21.7451C15.9639 21.7451 15.9284 21.7539 15.8984 21.7715C15.8685 21.7891 15.8454 21.8138 15.8291 21.8457C15.8128 21.8776 15.8047 21.9157 15.8047 21.96C15.8047 22.0036 15.8128 22.0417 15.8291 22.0742C15.8454 22.1061 15.8685 22.1312 15.8984 22.1494C15.929 22.1676 15.9648 22.1768 16.0059 22.1768C16.0469 22.1768 16.0824 22.1676 16.1123 22.1494C16.1423 22.1312 16.1654 22.1061 16.1816 22.0742C16.1979 22.0417 16.2061 22.0036 16.2061 21.96Z" fill="#2C2C2C"/>
<path d="M15.3604 27.8125V28H14.4072V27.8389L14.8701 27.334C14.9209 27.2767 14.9609 27.2272 14.9902 27.1855C15.0195 27.1439 15.04 27.1064 15.0518 27.0732C15.0641 27.0394 15.0703 27.0065 15.0703 26.9746C15.0703 26.9297 15.0618 26.8903 15.0449 26.8564C15.0286 26.8219 15.0046 26.7949 14.9727 26.7754C14.9408 26.7552 14.902 26.7451 14.8564 26.7451C14.8037 26.7451 14.7594 26.7565 14.7236 26.7793C14.6878 26.8021 14.6608 26.8337 14.6426 26.874C14.6243 26.9137 14.6152 26.9593 14.6152 27.0107H14.3799C14.3799 26.9281 14.3988 26.8525 14.4365 26.7842C14.4743 26.7152 14.529 26.6605 14.6006 26.6201C14.6722 26.5791 14.7585 26.5586 14.8594 26.5586C14.9544 26.5586 15.0352 26.5745 15.1016 26.6064C15.168 26.6383 15.2184 26.6836 15.2529 26.7422C15.2881 26.8008 15.3057 26.8701 15.3057 26.9502C15.3057 26.9945 15.2985 27.0384 15.2842 27.082C15.2699 27.1257 15.2493 27.1693 15.2227 27.2129C15.1966 27.2559 15.1657 27.2992 15.1299 27.3428C15.0941 27.3857 15.0547 27.4294 15.0117 27.4736L14.7041 27.8125H15.3604ZM15.791 27.3389L15.6035 27.293L15.6807 26.5781H16.4473V26.7773H15.876L15.8369 27.126C15.859 27.113 15.8896 27.1003 15.9287 27.0879C15.9678 27.0749 16.0124 27.0684 16.0625 27.0684C16.1296 27.0684 16.1895 27.0794 16.2422 27.1016C16.2956 27.123 16.3408 27.1546 16.3779 27.1963C16.415 27.2373 16.4434 27.2874 16.4629 27.3467C16.4824 27.4053 16.4922 27.4714 16.4922 27.5449C16.4922 27.6107 16.4824 27.6722 16.4629 27.7295C16.444 27.7868 16.4154 27.8372 16.377 27.8809C16.3385 27.9245 16.29 27.9587 16.2314 27.9834C16.1735 28.0075 16.1048 28.0195 16.0254 28.0195C15.9661 28.0195 15.9092 28.0111 15.8545 27.9941C15.8005 27.9766 15.752 27.9508 15.709 27.917C15.666 27.8825 15.6315 27.8402 15.6055 27.79C15.5794 27.7393 15.5645 27.681 15.5605 27.6152H15.791C15.7969 27.6615 15.8096 27.7008 15.8291 27.7334C15.8493 27.7653 15.876 27.7897 15.9092 27.8066C15.9424 27.8236 15.9808 27.832 16.0244 27.832C16.0641 27.832 16.0983 27.8252 16.127 27.8115C16.1556 27.7972 16.1794 27.777 16.1982 27.751C16.2178 27.7243 16.2321 27.693 16.2412 27.6572C16.251 27.6214 16.2559 27.5817 16.2559 27.5381C16.2559 27.4964 16.2503 27.4583 16.2393 27.4238C16.2288 27.3893 16.2129 27.3594 16.1914 27.334C16.1706 27.3086 16.1442 27.2891 16.1123 27.2754C16.0804 27.2611 16.0436 27.2539 16.002 27.2539C15.946 27.2539 15.903 27.262 15.873 27.2783C15.8438 27.2946 15.8164 27.3148 15.791 27.3389Z" fill="#2C2C2C"/>
<path d="M19.0498 16.5732V18H18.8145V16.8525L18.4658 16.9707V16.7764L19.0215 16.5732H19.0498ZM20.4971 17.8125V18H19.5439V17.8389L20.0068 17.334C20.0576 17.2767 20.0977 17.2272 20.127 17.1855C20.1562 17.1439 20.1768 17.1064 20.1885 17.0732C20.2008 17.0394 20.207 17.0065 20.207 16.9746C20.207 16.9297 20.1986 16.8903 20.1816 16.8564C20.1654 16.8219 20.1413 16.7949 20.1094 16.7754C20.0775 16.7552 20.0387 16.7451 19.9932 16.7451C19.9404 16.7451 19.8962 16.7565 19.8604 16.7793C19.8245 16.8021 19.7975 16.8337 19.7793 16.874C19.7611 16.9137 19.752 16.9593 19.752 17.0107H19.5166C19.5166 16.9281 19.5355 16.8525 19.5732 16.7842C19.611 16.7152 19.6657 16.6605 19.7373 16.6201C19.8089 16.5791 19.8952 16.5586 19.9961 16.5586C20.0911 16.5586 20.1719 16.5745 20.2383 16.6064C20.3047 16.6383 20.3551 16.6836 20.3896 16.7422C20.4248 16.8008 20.4424 16.8701 20.4424 16.9502C20.4424 16.9945 20.4352 17.0384 20.4209 17.082C20.4066 17.1257 20.3861 17.1693 20.3594 17.2129C20.3333 17.2559 20.3024 17.2992 20.2666 17.3428C20.2308 17.3857 20.1914 17.4294 20.1484 17.4736L19.8408 17.8125H20.4971Z" fill="#2C2C2C"/>
<path d="M19.0498 21.5732V23H18.8145V21.8525L18.4658 21.9707V21.7764L19.0215 21.5732H19.0498ZM19.7334 22.8145H19.7529C19.8428 22.8145 19.9176 22.8027 19.9775 22.7793C20.0381 22.7552 20.0863 22.722 20.1221 22.6797C20.1579 22.6374 20.1836 22.5876 20.1992 22.5303C20.2148 22.473 20.2227 22.4108 20.2227 22.3438V22.0986C20.2227 22.0407 20.2165 21.9899 20.2041 21.9463C20.1924 21.902 20.1755 21.8652 20.1533 21.8359C20.1318 21.806 20.1068 21.7835 20.0781 21.7686C20.0501 21.7536 20.0199 21.7461 19.9873 21.7461C19.9515 21.7461 19.9193 21.7542 19.8906 21.7705C19.8626 21.7861 19.8389 21.8079 19.8193 21.8359C19.8005 21.8633 19.7858 21.8955 19.7754 21.9326C19.7656 21.9691 19.7607 22.0081 19.7607 22.0498C19.7607 22.0889 19.7653 22.1266 19.7744 22.1631C19.7842 22.1989 19.7985 22.2308 19.8174 22.2588C19.8363 22.2868 19.86 22.3089 19.8887 22.3252C19.9173 22.3415 19.9508 22.3496 19.9893 22.3496C20.0257 22.3496 20.0592 22.3428 20.0898 22.3291C20.1204 22.3148 20.1471 22.2956 20.1699 22.2715C20.1927 22.2474 20.2106 22.2204 20.2236 22.1904C20.2367 22.1605 20.2438 22.1299 20.2451 22.0986L20.335 22.126C20.335 22.1755 20.3245 22.2243 20.3037 22.2725C20.2835 22.32 20.2552 22.3636 20.2188 22.4033C20.1829 22.4424 20.141 22.4736 20.0928 22.4971C20.0452 22.5205 19.9935 22.5322 19.9375 22.5322C19.8698 22.5322 19.8099 22.5195 19.7578 22.4941C19.7064 22.4681 19.6634 22.4329 19.6289 22.3887C19.5951 22.3444 19.5697 22.2936 19.5527 22.2363C19.5358 22.179 19.5273 22.1188 19.5273 22.0557C19.5273 21.9873 19.5378 21.9232 19.5586 21.8633C19.5794 21.8034 19.6097 21.7507 19.6494 21.7051C19.6891 21.6589 19.7373 21.623 19.7939 21.5977C19.8512 21.5716 19.916 21.5586 19.9883 21.5586C20.0651 21.5586 20.1325 21.5736 20.1904 21.6035C20.2484 21.6335 20.2972 21.6748 20.3369 21.7275C20.3766 21.7803 20.4066 21.8415 20.4268 21.9111C20.4469 21.9808 20.457 22.0557 20.457 22.1357V22.2188C20.457 22.3027 20.4495 22.3838 20.4346 22.4619C20.4196 22.5394 20.3952 22.6113 20.3613 22.6777C20.3281 22.7435 20.2842 22.8014 20.2295 22.8516C20.1755 22.901 20.109 22.9398 20.0303 22.9678C19.9521 22.9951 19.8604 23.0088 19.7549 23.0088H19.7334V22.8145Z" fill="#2C2C2C"/>
<path d="M19.3604 27.8125V28H18.4072V27.8389L18.8701 27.334C18.9209 27.2767 18.9609 27.2272 18.9902 27.1855C19.0195 27.1439 19.04 27.1064 19.0518 27.0732C19.0641 27.0394 19.0703 27.0065 19.0703 26.9746C19.0703 26.9297 19.0618 26.8903 19.0449 26.8564C19.0286 26.8219 19.0046 26.7949 18.9727 26.7754C18.9408 26.7552 18.902 26.7451 18.8564 26.7451C18.8037 26.7451 18.7594 26.7565 18.7236 26.7793C18.6878 26.8021 18.6608 26.8337 18.6426 26.874C18.6243 26.9137 18.6152 26.9593 18.6152 27.0107H18.3799C18.3799 26.9281 18.3988 26.8525 18.4365 26.7842C18.4743 26.7152 18.529 26.6605 18.6006 26.6201C18.6722 26.5791 18.7585 26.5586 18.8594 26.5586C18.9544 26.5586 19.0352 26.5745 19.1016 26.6064C19.168 26.6383 19.2184 26.6836 19.2529 26.7422C19.2881 26.8008 19.3057 26.8701 19.3057 26.9502C19.3057 26.9945 19.2985 27.0384 19.2842 27.082C19.2699 27.1257 19.2493 27.1693 19.2227 27.2129C19.1966 27.2559 19.1657 27.2992 19.1299 27.3428C19.0941 27.3857 19.0547 27.4294 19.0117 27.4736L18.7041 27.8125H19.3604ZM20.2549 26.5693H20.2842V26.7617H20.2676C20.1836 26.7617 20.111 26.7747 20.0498 26.8008C19.9893 26.8268 19.9395 26.8626 19.9004 26.9082C19.8613 26.9538 19.832 27.0072 19.8125 27.0684C19.7936 27.1289 19.7842 27.1934 19.7842 27.2617V27.4854C19.7842 27.542 19.7904 27.5921 19.8027 27.6357C19.8151 27.6787 19.8324 27.7148 19.8545 27.7441C19.8773 27.7728 19.9033 27.7946 19.9326 27.8096C19.9619 27.8245 19.9935 27.832 20.0273 27.832C20.0625 27.832 20.0944 27.8249 20.123 27.8105C20.1517 27.7956 20.1761 27.7751 20.1963 27.749C20.2165 27.723 20.2318 27.6921 20.2422 27.6562C20.2526 27.6204 20.2578 27.5814 20.2578 27.5391C20.2578 27.4987 20.2526 27.4609 20.2422 27.4258C20.2324 27.39 20.2178 27.3587 20.1982 27.332C20.1787 27.3047 20.1543 27.2835 20.125 27.2686C20.0964 27.2529 20.0632 27.2451 20.0254 27.2451C19.9785 27.2451 19.9359 27.2562 19.8975 27.2783C19.8597 27.3005 19.8291 27.3294 19.8057 27.3652C19.7829 27.4004 19.7705 27.4378 19.7686 27.4775L19.6787 27.4482C19.6839 27.3877 19.6973 27.3333 19.7188 27.2852C19.7409 27.237 19.7699 27.196 19.8057 27.1621C19.8415 27.1283 19.8828 27.1025 19.9297 27.085C19.9772 27.0667 20.0293 27.0576 20.0859 27.0576C20.1549 27.0576 20.2148 27.0706 20.2656 27.0967C20.3164 27.1227 20.3584 27.1582 20.3916 27.2031C20.4255 27.2474 20.4505 27.2982 20.4668 27.3555C20.4837 27.4121 20.4922 27.4714 20.4922 27.5332C20.4922 27.6016 20.4818 27.6654 20.4609 27.7246C20.4401 27.7832 20.4095 27.8346 20.3691 27.8789C20.3294 27.9232 20.2809 27.9577 20.2236 27.9824C20.167 28.0072 20.1025 28.0195 20.0303 28.0195C19.9541 28.0195 19.8861 28.0049 19.8262 27.9756C19.7669 27.9463 19.7165 27.9059 19.6748 27.8545C19.6338 27.8031 19.6025 27.7438 19.5811 27.6768C19.5596 27.6097 19.5488 27.5387 19.5488 27.4639V27.3662C19.5488 27.2581 19.5625 27.1562 19.5898 27.0605C19.6172 26.9642 19.6592 26.8792 19.7158 26.8057C19.7731 26.7321 19.8464 26.6745 19.9355 26.6328C20.0247 26.5905 20.1312 26.5693 20.2549 26.5693Z" fill="#2C2C2C"/>
<path d="M23.0498 16.5732V18H22.8145V16.8525L22.4658 16.9707V16.7764L23.0215 16.5732H23.0498ZM23.8203 17.1826H23.9609C24.0156 17.1826 24.0609 17.1732 24.0967 17.1543C24.1331 17.1354 24.1602 17.1094 24.1777 17.0762C24.1953 17.043 24.2041 17.0049 24.2041 16.9619C24.2041 16.917 24.196 16.8786 24.1797 16.8467C24.1641 16.8141 24.14 16.7891 24.1074 16.7715C24.0755 16.7539 24.0348 16.7451 23.9854 16.7451C23.9437 16.7451 23.9059 16.7536 23.8721 16.7705C23.8389 16.7868 23.8125 16.8102 23.793 16.8408C23.7734 16.8708 23.7637 16.9066 23.7637 16.9482H23.5273C23.5273 16.8727 23.5472 16.8057 23.5869 16.7471C23.6266 16.6885 23.6807 16.6426 23.749 16.6094C23.818 16.5755 23.8955 16.5586 23.9814 16.5586C24.0732 16.5586 24.1533 16.5739 24.2217 16.6045C24.2907 16.6344 24.3444 16.6794 24.3828 16.7393C24.4212 16.7992 24.4404 16.8734 24.4404 16.9619C24.4404 17.0023 24.431 17.0433 24.4121 17.085C24.3932 17.1266 24.3652 17.1647 24.3281 17.1992C24.291 17.2331 24.2448 17.2607 24.1895 17.2822C24.1341 17.3031 24.07 17.3135 23.9971 17.3135H23.8203V17.1826ZM23.8203 17.3662V17.2373H23.9971C24.0804 17.2373 24.1514 17.2471 24.21 17.2666C24.2692 17.2861 24.3174 17.3132 24.3545 17.3477C24.3916 17.3815 24.4186 17.4202 24.4355 17.4639C24.4531 17.5075 24.4619 17.5537 24.4619 17.6025C24.4619 17.6689 24.4499 17.7282 24.4258 17.7803C24.4023 17.8317 24.3688 17.8753 24.3252 17.9111C24.2816 17.9469 24.2305 17.974 24.1719 17.9922C24.1139 18.0104 24.0508 18.0195 23.9824 18.0195C23.9212 18.0195 23.8626 18.0111 23.8066 17.9941C23.7507 17.9772 23.7005 17.9521 23.6562 17.9189C23.612 17.8851 23.5768 17.8431 23.5508 17.793C23.5254 17.7422 23.5127 17.6836 23.5127 17.6172H23.748C23.748 17.6595 23.7578 17.6969 23.7773 17.7295C23.7975 17.7614 23.8255 17.7865 23.8613 17.8047C23.8978 17.8229 23.9395 17.832 23.9863 17.832C24.0358 17.832 24.0785 17.8232 24.1143 17.8057C24.1501 17.7881 24.1774 17.762 24.1963 17.7275C24.2158 17.693 24.2256 17.6514 24.2256 17.6025C24.2256 17.5472 24.2148 17.5023 24.1934 17.4678C24.1719 17.4333 24.1413 17.4079 24.1016 17.3916C24.0618 17.3747 24.015 17.3662 23.9609 17.3662H23.8203Z" fill="#2C2C2C"/>
<path d="M23.3604 22.8125V23H22.4072V22.8389L22.8701 22.334C22.9209 22.2767 22.9609 22.2272 22.9902 22.1855C23.0195 22.1439 23.04 22.1064 23.0518 22.0732C23.0641 22.0394 23.0703 22.0065 23.0703 21.9746C23.0703 21.9297 23.0618 21.8903 23.0449 21.8564C23.0286 21.8219 23.0046 21.7949 22.9727 21.7754C22.9408 21.7552 22.902 21.7451 22.8564 21.7451C22.8037 21.7451 22.7594 21.7565 22.7236 21.7793C22.6878 21.8021 22.6608 21.8337 22.6426 21.874C22.6243 21.9137 22.6152 21.9593 22.6152 22.0107H22.3799C22.3799 21.9281 22.3988 21.8525 22.4365 21.7842C22.4743 21.7152 22.529 21.6605 22.6006 21.6201C22.6722 21.5791 22.7585 21.5586 22.8594 21.5586C22.9544 21.5586 23.0352 21.5745 23.1016 21.6064C23.168 21.6383 23.2184 21.6836 23.2529 21.7422C23.2881 21.8008 23.3057 21.8701 23.3057 21.9502C23.3057 21.9945 23.2985 22.0384 23.2842 22.082C23.2699 22.1257 23.2493 22.1693 23.2227 22.2129C23.1966 22.2559 23.1657 22.2992 23.1299 22.3428C23.0941 22.3857 23.0547 22.4294 23.0117 22.4736L22.7041 22.8125H23.3604ZM24.4707 22.1699V22.4023C24.4707 22.5137 24.4596 22.6087 24.4375 22.6875C24.416 22.7656 24.3848 22.8291 24.3438 22.8779C24.3027 22.9268 24.2536 22.9626 24.1963 22.9854C24.1396 23.0081 24.0762 23.0195 24.0059 23.0195C23.9499 23.0195 23.8978 23.0124 23.8496 22.998C23.8021 22.9837 23.7591 22.9613 23.7207 22.9307C23.6823 22.9001 23.6494 22.8607 23.6221 22.8125C23.5954 22.7637 23.5745 22.7054 23.5596 22.6377C23.5452 22.57 23.5381 22.4915 23.5381 22.4023V22.1699C23.5381 22.0579 23.5492 21.9635 23.5713 21.8867C23.5934 21.8092 23.625 21.7464 23.666 21.6982C23.707 21.6494 23.7559 21.6139 23.8125 21.5918C23.8698 21.5697 23.9336 21.5586 24.0039 21.5586C24.0605 21.5586 24.1126 21.5658 24.1602 21.5801C24.2083 21.5938 24.2513 21.6156 24.2891 21.6455C24.3275 21.6755 24.36 21.7145 24.3867 21.7627C24.4141 21.8102 24.4349 21.8678 24.4492 21.9355C24.4635 22.0026 24.4707 22.0807 24.4707 22.1699ZM24.2354 22.4355V22.1348C24.2354 22.0781 24.2321 22.0283 24.2256 21.9854C24.2191 21.9417 24.2093 21.9049 24.1963 21.875C24.1839 21.8444 24.1683 21.8197 24.1494 21.8008C24.1305 21.7812 24.109 21.7673 24.085 21.7588C24.0609 21.7497 24.0339 21.7451 24.0039 21.7451C23.9674 21.7451 23.9349 21.7523 23.9062 21.7666C23.8776 21.7803 23.8535 21.8024 23.834 21.833C23.8145 21.8636 23.7995 21.904 23.7891 21.9541C23.7793 22.0036 23.7744 22.0638 23.7744 22.1348V22.4355C23.7744 22.4928 23.7777 22.5433 23.7842 22.5869C23.7907 22.6305 23.8005 22.668 23.8135 22.6992C23.8265 22.7298 23.8421 22.7552 23.8604 22.7754C23.8792 22.7949 23.9007 22.8092 23.9248 22.8184C23.9495 22.8275 23.9766 22.832 24.0059 22.832C24.043 22.832 24.0758 22.8249 24.1045 22.8105C24.1331 22.7962 24.1572 22.7734 24.1768 22.7422C24.1963 22.7103 24.2109 22.6689 24.2207 22.6182C24.2305 22.5674 24.2354 22.5065 24.2354 22.4355Z" fill="#2C2C2C"/>
<path d="M23.3604 27.8125V28H22.4072V27.8389L22.8701 27.334C22.9209 27.2767 22.9609 27.2272 22.9902 27.1855C23.0195 27.1439 23.04 27.1064 23.0518 27.0732C23.0641 27.0394 23.0703 27.0065 23.0703 26.9746C23.0703 26.9297 23.0618 26.8903 23.0449 26.8564C23.0286 26.8219 23.0046 26.7949 22.9727 26.7754C22.9408 26.7552 22.902 26.7451 22.8564 26.7451C22.8037 26.7451 22.7594 26.7565 22.7236 26.7793C22.6878 26.8021 22.6608 26.8337 22.6426 26.874C22.6243 26.9137 22.6152 26.9593 22.6152 27.0107H22.3799C22.3799 26.9281 22.3988 26.8525 22.4365 26.7842C22.4743 26.7152 22.529 26.6605 22.6006 26.6201C22.6722 26.5791 22.7585 26.5586 22.8594 26.5586C22.9544 26.5586 23.0352 26.5745 23.1016 26.6064C23.168 26.6383 23.2184 26.6836 23.2529 26.7422C23.2881 26.8008 23.3057 26.8701 23.3057 26.9502C23.3057 26.9945 23.2985 27.0384 23.2842 27.082C23.2699 27.1257 23.2493 27.1693 23.2227 27.2129C23.1966 27.2559 23.1657 27.2992 23.1299 27.3428C23.0941 27.3857 23.0547 27.4294 23.0117 27.4736L22.7041 27.8125H23.3604ZM24.4883 26.5781V26.707L23.9199 28H23.6719L24.2393 26.7656H23.5029V26.5781H24.4883Z" fill="#2C2C2C"/>
<path d="M27.0498 16.5732V18H26.8145V16.8525L26.4658 16.9707V16.7764L27.0215 16.5732H27.0498ZM28.5234 17.4932V17.6807H27.498L27.4902 17.5391L28.1035 16.5781H28.292L28.0879 16.9277L27.7354 17.4932H28.5234ZM28.3457 16.5781V18H28.1104V16.5781H28.3457Z" fill="#2C2C2C"/>
<path d="M27.3604 22.8125V23H26.4072V22.8389L26.8701 22.334C26.9209 22.2767 26.9609 22.2272 26.9902 22.1855C27.0195 22.1439 27.04 22.1064 27.0518 22.0732C27.0641 22.0394 27.0703 22.0065 27.0703 21.9746C27.0703 21.9297 27.0618 21.8903 27.0449 21.8564C27.0286 21.8219 27.0046 21.7949 26.9727 21.7754C26.9408 21.7552 26.902 21.7451 26.8564 21.7451C26.8037 21.7451 26.7594 21.7565 26.7236 21.7793C26.6878 21.8021 26.6608 21.8337 26.6426 21.874C26.6243 21.9137 26.6152 21.9593 26.6152 22.0107H26.3799C26.3799 21.9281 26.3988 21.8525 26.4365 21.7842C26.4743 21.7152 26.529 21.6605 26.6006 21.6201C26.6722 21.5791 26.7585 21.5586 26.8594 21.5586C26.9544 21.5586 27.0352 21.5745 27.1016 21.6064C27.168 21.6383 27.2184 21.6836 27.2529 21.7422C27.2881 21.8008 27.3057 21.8701 27.3057 21.9502C27.3057 21.9945 27.2985 22.0384 27.2842 22.082C27.2699 22.1257 27.2493 22.1693 27.2227 22.2129C27.1966 22.2559 27.1657 22.2992 27.1299 22.3428C27.0941 22.3857 27.0547 22.4294 27.0117 22.4736L26.7041 22.8125H27.3604ZM28.1865 21.5732V23H27.9512V21.8525L27.6025 21.9707V21.7764L28.1582 21.5732H28.1865Z" fill="#2C2C2C"/>
<path d="M27.3604 27.8125V28H26.4072V27.8389L26.8701 27.334C26.9209 27.2767 26.9609 27.2272 26.9902 27.1855C27.0195 27.1439 27.04 27.1064 27.0518 27.0732C27.0641 27.0394 27.0703 27.0065 27.0703 26.9746C27.0703 26.9297 27.0618 26.8903 27.0449 26.8564C27.0286 26.8219 27.0046 26.7949 26.9727 26.7754C26.9408 26.7552 26.902 26.7451 26.8564 26.7451C26.8037 26.7451 26.7594 26.7565 26.7236 26.7793C26.6878 26.8021 26.6608 26.8337 26.6426 26.874C26.6243 26.9137 26.6152 26.9593 26.6152 27.0107H26.3799C26.3799 26.9281 26.3988 26.8525 26.4365 26.7842C26.4743 26.7152 26.529 26.6605 26.6006 26.6201C26.6722 26.5791 26.7585 26.5586 26.8594 26.5586C26.9544 26.5586 27.0352 26.5745 27.1016 26.6064C27.168 26.6383 27.2184 26.6836 27.2529 26.7422C27.2881 26.8008 27.3057 26.8701 27.3057 26.9502C27.3057 26.9945 27.2985 27.0384 27.2842 27.082C27.2699 27.1257 27.2493 27.1693 27.2227 27.2129C27.1966 27.2559 27.1657 27.2992 27.1299 27.3428C27.0941 27.3857 27.0547 27.4294 27.0117 27.4736L26.7041 27.8125H27.3604ZM28.4736 27.6123C28.4736 27.7008 28.4531 27.7754 28.4121 27.8359C28.3711 27.8965 28.3151 27.9424 28.2441 27.9736C28.1738 28.0042 28.0944 28.0195 28.0059 28.0195C27.9173 28.0195 27.8376 28.0042 27.7666 27.9736C27.6956 27.9424 27.6396 27.8965 27.5986 27.8359C27.5576 27.7754 27.5371 27.7008 27.5371 27.6123C27.5371 27.5537 27.5485 27.5007 27.5713 27.4531C27.5941 27.4049 27.6263 27.3636 27.668 27.3291C27.7103 27.2939 27.7598 27.2669 27.8164 27.248C27.8737 27.2292 27.9362 27.2197 28.0039 27.2197C28.0938 27.2197 28.1742 27.2363 28.2451 27.2695C28.3161 27.3027 28.3717 27.3486 28.4121 27.4072C28.4531 27.4658 28.4736 27.5342 28.4736 27.6123ZM28.2373 27.6006C28.2373 27.5531 28.2275 27.5114 28.208 27.4756C28.1885 27.4398 28.1611 27.4121 28.126 27.3926C28.0908 27.373 28.0501 27.3633 28.0039 27.3633C27.957 27.3633 27.9163 27.373 27.8818 27.3926C27.8473 27.4121 27.8203 27.4398 27.8008 27.4756C27.7819 27.5114 27.7725 27.5531 27.7725 27.6006C27.7725 27.6488 27.7819 27.6904 27.8008 27.7256C27.8197 27.7601 27.8467 27.7865 27.8818 27.8047C27.917 27.8229 27.9583 27.832 28.0059 27.832C28.0534 27.832 28.0944 27.8229 28.1289 27.8047C28.1634 27.7865 28.1901 27.7601 28.209 27.7256C28.2279 27.6904 28.2373 27.6488 28.2373 27.6006ZM28.4414 26.9521C28.4414 27.0231 28.4225 27.0863 28.3848 27.1416C28.3477 27.1969 28.2962 27.2406 28.2305 27.2725C28.1647 27.3037 28.0898 27.3193 28.0059 27.3193C27.9212 27.3193 27.8457 27.3037 27.7793 27.2725C27.7135 27.2406 27.6618 27.1969 27.624 27.1416C27.5869 27.0863 27.5684 27.0231 27.5684 26.9521C27.5684 26.8675 27.5869 26.7962 27.624 26.7383C27.6618 26.6797 27.7135 26.6351 27.7793 26.6045C27.8451 26.5739 27.9202 26.5586 28.0049 26.5586C28.0895 26.5586 28.1647 26.5739 28.2305 26.6045C28.2962 26.6351 28.3477 26.6797 28.3848 26.7383C28.4225 26.7962 28.4414 26.8675 28.4414 26.9521ZM28.2061 26.96C28.2061 26.9176 28.1976 26.8805 28.1807 26.8486C28.1644 26.8161 28.1413 26.7907 28.1113 26.7725C28.0814 26.7542 28.0459 26.7451 28.0049 26.7451C27.9639 26.7451 27.9284 26.7539 27.8984 26.7715C27.8685 26.7891 27.8454 26.8138 27.8291 26.8457C27.8128 26.8776 27.8047 26.9157 27.8047 26.96C27.8047 27.0036 27.8128 27.0417 27.8291 27.0742C27.8454 27.1061 27.8685 27.1312 27.8984 27.1494C27.929 27.1676 27.9648 27.1768 28.0059 27.1768C28.0469 27.1768 28.0824 27.1676 28.1123 27.1494C28.1423 27.1312 28.1654 27.1061 28.1816 27.0742C28.1979 27.0417 28.2061 27.0036 28.2061 26.96Z" fill="#2C2C2C"/>
<path d="M16.0869 12.4932V12.6807H15.0615L15.0537 12.5391L15.667 11.5781H15.8555L15.6514 11.9277L15.2988 12.4932H16.0869ZM15.9092 11.5781V13H15.6738V11.5781H15.9092Z" fill="#2C2C2C"/>
<path d="M19.3545 12.3389L19.167 12.293L19.2441 11.5781H20.0107V11.7773H19.4395L19.4004 12.126C19.4225 12.113 19.4531 12.1003 19.4922 12.0879C19.5312 12.0749 19.5758 12.0684 19.626 12.0684C19.693 12.0684 19.7529 12.0794 19.8057 12.1016C19.859 12.123 19.9043 12.1546 19.9414 12.1963C19.9785 12.2373 20.0068 12.2874 20.0264 12.3467C20.0459 12.4053 20.0557 12.4714 20.0557 12.5449C20.0557 12.6107 20.0459 12.6722 20.0264 12.7295C20.0075 12.7868 19.9788 12.8372 19.9404 12.8809C19.902 12.9245 19.8535 12.9587 19.7949 12.9834C19.737 13.0075 19.6683 13.0195 19.5889 13.0195C19.5296 13.0195 19.4727 13.0111 19.418 12.9941C19.3639 12.9766 19.3154 12.9508 19.2725 12.917C19.2295 12.8825 19.195 12.8402 19.1689 12.79C19.1429 12.7393 19.1279 12.681 19.124 12.6152H19.3545C19.3604 12.6615 19.373 12.7008 19.3926 12.7334C19.4128 12.7653 19.4395 12.7897 19.4727 12.8066C19.5059 12.8236 19.5443 12.832 19.5879 12.832C19.6276 12.832 19.6618 12.8252 19.6904 12.8115C19.7191 12.7972 19.7428 12.777 19.7617 12.751C19.7812 12.7243 19.7956 12.693 19.8047 12.6572C19.8145 12.6214 19.8193 12.5817 19.8193 12.5381C19.8193 12.4964 19.8138 12.4583 19.8027 12.4238C19.7923 12.3893 19.7764 12.3594 19.7549 12.334C19.734 12.3086 19.7077 12.2891 19.6758 12.2754C19.6439 12.2611 19.6071 12.2539 19.5654 12.2539C19.5094 12.2539 19.4665 12.262 19.4365 12.2783C19.4072 12.2946 19.3799 12.3148 19.3545 12.3389Z" fill="#2C2C2C"/>
<path d="M23.8184 11.5693H23.8477V11.7617H23.8311C23.7471 11.7617 23.6745 11.7747 23.6133 11.8008C23.5527 11.8268 23.5029 11.8626 23.4639 11.9082C23.4248 11.9538 23.3955 12.0072 23.376 12.0684C23.3571 12.1289 23.3477 12.1934 23.3477 12.2617V12.4854C23.3477 12.542 23.3538 12.5921 23.3662 12.6357C23.3786 12.6787 23.3958 12.7148 23.418 12.7441C23.4408 12.7728 23.4668 12.7946 23.4961 12.8096C23.5254 12.8245 23.557 12.832 23.5908 12.832C23.626 12.832 23.6579 12.8249 23.6865 12.8105C23.7152 12.7956 23.7396 12.7751 23.7598 12.749C23.7799 12.723 23.7952 12.6921 23.8057 12.6562C23.8161 12.6204 23.8213 12.5814 23.8213 12.5391C23.8213 12.4987 23.8161 12.4609 23.8057 12.4258C23.7959 12.39 23.7812 12.3587 23.7617 12.332C23.7422 12.3047 23.7178 12.2835 23.6885 12.2686C23.6598 12.2529 23.6266 12.2451 23.5889 12.2451C23.542 12.2451 23.4993 12.2562 23.4609 12.2783C23.4232 12.3005 23.3926 12.3294 23.3691 12.3652C23.3464 12.4004 23.334 12.4378 23.332 12.4775L23.2422 12.4482C23.2474 12.3877 23.2607 12.3333 23.2822 12.2852C23.3044 12.237 23.3333 12.196 23.3691 12.1621C23.4049 12.1283 23.4463 12.1025 23.4932 12.085C23.5407 12.0667 23.5928 12.0576 23.6494 12.0576C23.7184 12.0576 23.7783 12.0706 23.8291 12.0967C23.8799 12.1227 23.9219 12.1582 23.9551 12.2031C23.9889 12.2474 24.014 12.2982 24.0303 12.3555C24.0472 12.4121 24.0557 12.4714 24.0557 12.5332C24.0557 12.6016 24.0452 12.6654 24.0244 12.7246C24.0036 12.7832 23.973 12.8346 23.9326 12.8789C23.8929 12.9232 23.8444 12.9577 23.7871 12.9824C23.7305 13.0072 23.666 13.0195 23.5938 13.0195C23.5176 13.0195 23.4495 13.0049 23.3896 12.9756C23.3304 12.9463 23.2799 12.9059 23.2383 12.8545C23.1973 12.8031 23.166 12.7438 23.1445 12.6768C23.123 12.6097 23.1123 12.5387 23.1123 12.4639V12.3662C23.1123 12.2581 23.126 12.1562 23.1533 12.0605C23.1807 11.9642 23.2227 11.8792 23.2793 11.8057C23.3366 11.7321 23.4098 11.6745 23.499 11.6328C23.5882 11.5905 23.6947 11.5693 23.8184 11.5693Z" fill="#2C2C2C"/>
<path d="M28.0518 11.5781V11.707L27.4834 13H27.2354L27.8027 11.7656H27.0664V11.5781H28.0518Z" fill="#2C2C2C"/>
<rect x="1" y="3" width="29" height="6" fill="#053430"/>
<path d="M8.59033 4.86719V7H8.22412V4.86719H8.59033ZM9.87354 4.86719L9.00635 6.08301H8.48633L8.43652 5.76367H8.80273L9.42383 4.86719H9.87354ZM9.49854 7L8.80859 6.02734L9.0459 5.74463L9.93945 7H9.49854ZM11.0088 6.68213V5.92627C11.0088 5.86963 10.9985 5.8208 10.978 5.77979C10.9575 5.73877 10.9263 5.70703 10.8843 5.68457C10.8433 5.66211 10.7915 5.65088 10.729 5.65088C10.6714 5.65088 10.6216 5.66064 10.5796 5.68018C10.5376 5.69971 10.5049 5.72607 10.4814 5.75928C10.458 5.79248 10.4463 5.83008 10.4463 5.87207H10.0947C10.0947 5.80957 10.1099 5.74902 10.1401 5.69043C10.1704 5.63184 10.2144 5.57959 10.272 5.53369C10.3296 5.48779 10.3984 5.45166 10.4785 5.42529C10.5586 5.39893 10.6484 5.38574 10.748 5.38574C10.8672 5.38574 10.9727 5.40576 11.0645 5.4458C11.1572 5.48584 11.23 5.54639 11.2827 5.62744C11.3364 5.70752 11.3633 5.80811 11.3633 5.9292V6.63379C11.3633 6.70605 11.3682 6.771 11.3779 6.82861C11.3887 6.88525 11.4038 6.93457 11.4233 6.97656V7H11.0615C11.0449 6.96191 11.0317 6.91357 11.022 6.85498C11.0132 6.79541 11.0088 6.73779 11.0088 6.68213ZM11.0601 6.03613L11.063 6.25439H10.8096C10.7441 6.25439 10.6865 6.26074 10.6367 6.27344C10.5869 6.28516 10.5454 6.30273 10.5122 6.32617C10.479 6.34961 10.4541 6.37793 10.4375 6.41113C10.4209 6.44434 10.4126 6.48193 10.4126 6.52393C10.4126 6.56592 10.4224 6.60449 10.4419 6.63965C10.4614 6.67383 10.4897 6.70068 10.5269 6.72021C10.5649 6.73975 10.6108 6.74951 10.6646 6.74951C10.7368 6.74951 10.7998 6.73486 10.8535 6.70557C10.9082 6.67529 10.9512 6.63867 10.9824 6.5957C11.0137 6.55176 11.0303 6.51025 11.0322 6.47119L11.1465 6.62793C11.1348 6.66797 11.1147 6.71094 11.0864 6.75684C11.0581 6.80273 11.021 6.84668 10.9751 6.88867C10.9302 6.92969 10.876 6.96338 10.8125 6.98975C10.75 7.01611 10.6777 7.0293 10.5957 7.0293C10.4922 7.0293 10.3999 7.00879 10.3188 6.96777C10.2378 6.92578 10.1743 6.86963 10.1284 6.79932C10.0825 6.72803 10.0596 6.64746 10.0596 6.55762C10.0596 6.47363 10.0752 6.39941 10.1064 6.33496C10.1387 6.26953 10.1855 6.21484 10.2471 6.1709C10.3096 6.12695 10.3857 6.09375 10.4756 6.07129C10.5654 6.04785 10.668 6.03613 10.7832 6.03613H11.0601ZM12.7974 5.41504V5.69629H12.0239V5.41504H12.7974ZM13.0742 5.41504V7H12.7212V5.41504H13.0742ZM11.9375 5.41504H12.2861L12.2437 6.19873C12.2378 6.31494 12.2261 6.41748 12.2085 6.50635C12.1919 6.59424 12.1694 6.66992 12.1411 6.7334C12.1128 6.7959 12.0781 6.84668 12.0371 6.88574C11.9961 6.9248 11.9482 6.95361 11.8936 6.97217C11.8389 6.99072 11.7773 7 11.709 7H11.5991L11.5977 6.70996L11.6533 6.70557C11.6895 6.70264 11.7207 6.69336 11.7471 6.67773C11.7734 6.66113 11.7959 6.6377 11.8145 6.60742C11.834 6.57715 11.8496 6.53809 11.8613 6.49023C11.874 6.44238 11.8838 6.38574 11.8906 6.32031C11.8984 6.25488 11.9043 6.17871 11.9082 6.0918L11.9375 5.41504ZM14.1479 7.0293C14.0308 7.0293 13.9248 7.01025 13.8301 6.97217C13.7363 6.93311 13.6562 6.87891 13.5898 6.80957C13.5244 6.74023 13.4741 6.65869 13.439 6.56494C13.4038 6.47119 13.3862 6.37012 13.3862 6.26172V6.20312C13.3862 6.0791 13.4043 5.9668 13.4404 5.86621C13.4766 5.76562 13.5269 5.67969 13.5913 5.6084C13.6558 5.53613 13.7319 5.48096 13.8198 5.44287C13.9077 5.40479 14.0029 5.38574 14.1055 5.38574C14.2188 5.38574 14.3179 5.40479 14.4028 5.44287C14.4878 5.48096 14.5581 5.53467 14.6138 5.604C14.6704 5.67236 14.7124 5.75391 14.7397 5.84863C14.7681 5.94336 14.7822 6.04785 14.7822 6.16211V6.31299H13.5576V6.05957H14.4336V6.03174C14.4316 5.96826 14.4189 5.90869 14.3955 5.85303C14.373 5.79736 14.3384 5.75244 14.2915 5.71826C14.2446 5.68408 14.1821 5.66699 14.104 5.66699C14.0454 5.66699 13.9932 5.67969 13.9473 5.70508C13.9023 5.72949 13.8647 5.76514 13.8345 5.81201C13.8042 5.85889 13.7808 5.91553 13.7642 5.98193C13.7485 6.04736 13.7407 6.12109 13.7407 6.20312V6.26172C13.7407 6.33105 13.75 6.39551 13.7686 6.45508C13.7881 6.51367 13.8164 6.56494 13.8535 6.60889C13.8906 6.65283 13.9355 6.6875 13.9883 6.71289C14.041 6.7373 14.1011 6.74951 14.1685 6.74951C14.2534 6.74951 14.3291 6.73242 14.3955 6.69824C14.4619 6.66406 14.5195 6.61572 14.5684 6.55322L14.7544 6.7334C14.7202 6.7832 14.6758 6.83105 14.6211 6.87695C14.5664 6.92188 14.4995 6.9585 14.4204 6.98682C14.3423 7.01514 14.2515 7.0293 14.1479 7.0293ZM16.1401 6.07715V6.35547H15.3198V6.07715H16.1401ZM15.4224 5.41504V7H15.0693V5.41504H15.4224ZM16.395 5.41504V7H16.042V5.41504H16.395ZM17.0586 5.41504H17.4116L17.394 5.97314C17.3892 6.13525 17.3706 6.27441 17.3384 6.39062C17.3062 6.50684 17.2642 6.60498 17.2124 6.68506C17.1606 6.76416 17.1021 6.8291 17.0366 6.87988C16.9722 6.93066 16.9043 6.9707 16.833 7H16.729V6.72168L16.7788 6.71875C16.8208 6.67383 16.8569 6.62891 16.8872 6.58398C16.9185 6.53809 16.9448 6.48779 16.9663 6.43311C16.9878 6.37744 17.0044 6.3125 17.0161 6.23828C17.0288 6.16406 17.0371 6.07568 17.041 5.97314L17.0586 5.41504ZM17.1523 5.41504H18.1572V7H17.8057V5.71387H17.1523V5.41504ZM16.6484 6.71875H18.374V7.47168H18.021V7H17.0059V7.47168H16.647L16.6484 6.71875ZM19.5195 6.68213V5.92627C19.5195 5.86963 19.5093 5.8208 19.4888 5.77979C19.4683 5.73877 19.437 5.70703 19.395 5.68457C19.354 5.66211 19.3022 5.65088 19.2397 5.65088C19.1821 5.65088 19.1323 5.66064 19.0903 5.68018C19.0483 5.69971 19.0156 5.72607 18.9922 5.75928C18.9688 5.79248 18.957 5.83008 18.957 5.87207H18.6055C18.6055 5.80957 18.6206 5.74902 18.6509 5.69043C18.6812 5.63184 18.7251 5.57959 18.7827 5.53369C18.8403 5.48779 18.9092 5.45166 18.9893 5.42529C19.0693 5.39893 19.1592 5.38574 19.2588 5.38574C19.3779 5.38574 19.4834 5.40576 19.5752 5.4458C19.668 5.48584 19.7407 5.54639 19.7935 5.62744C19.8472 5.70752 19.874 5.80811 19.874 5.9292V6.63379C19.874 6.70605 19.8789 6.771 19.8887 6.82861C19.8994 6.88525 19.9146 6.93457 19.9341 6.97656V7H19.5723C19.5557 6.96191 19.5425 6.91357 19.5327 6.85498C19.5239 6.79541 19.5195 6.73779 19.5195 6.68213ZM19.5708 6.03613L19.5737 6.25439H19.3203C19.2549 6.25439 19.1973 6.26074 19.1475 6.27344C19.0977 6.28516 19.0562 6.30273 19.0229 6.32617C18.9897 6.34961 18.9648 6.37793 18.9482 6.41113C18.9316 6.44434 18.9233 6.48193 18.9233 6.52393C18.9233 6.56592 18.9331 6.60449 18.9526 6.63965C18.9722 6.67383 19.0005 6.70068 19.0376 6.72021C19.0757 6.73975 19.1216 6.74951 19.1753 6.74951C19.2476 6.74951 19.3105 6.73486 19.3643 6.70557C19.4189 6.67529 19.4619 6.63867 19.4932 6.5957C19.5244 6.55176 19.541 6.51025 19.543 6.47119L19.6572 6.62793C19.6455 6.66797 19.6255 6.71094 19.5972 6.75684C19.5688 6.80273 19.5317 6.84668 19.4858 6.88867C19.4409 6.92969 19.3867 6.96338 19.3232 6.98975C19.2607 7.01611 19.1885 7.0293 19.1064 7.0293C19.0029 7.0293 18.9106 7.00879 18.8296 6.96777C18.7485 6.92578 18.6851 6.86963 18.6392 6.79932C18.5933 6.72803 18.5703 6.64746 18.5703 6.55762C18.5703 6.47363 18.5859 6.39941 18.6172 6.33496C18.6494 6.26953 18.6963 6.21484 18.7578 6.1709C18.8203 6.12695 18.8965 6.09375 18.9863 6.07129C19.0762 6.04785 19.1787 6.03613 19.2939 6.03613H19.5708ZM20.5977 5.71973V7.60938H20.2446V5.41504H20.5698L20.5977 5.71973ZM21.6304 6.19287V6.22363C21.6304 6.33887 21.6167 6.4458 21.5894 6.54443C21.563 6.64209 21.5234 6.72754 21.4707 6.80078C21.4189 6.87305 21.355 6.9292 21.2788 6.96924C21.2026 7.00928 21.1147 7.0293 21.0151 7.0293C20.9165 7.0293 20.8301 7.01123 20.7559 6.9751C20.6826 6.93799 20.6206 6.88574 20.5698 6.81836C20.519 6.75098 20.478 6.67188 20.4468 6.58105C20.4165 6.48926 20.395 6.38867 20.3823 6.2793V6.16064C20.395 6.04443 20.4165 5.93896 20.4468 5.84424C20.478 5.74951 20.519 5.66797 20.5698 5.59961C20.6206 5.53125 20.6826 5.47852 20.7559 5.44141C20.8291 5.4043 20.9146 5.38574 21.0122 5.38574C21.1118 5.38574 21.2002 5.40527 21.2773 5.44434C21.3545 5.48242 21.4194 5.53711 21.4722 5.6084C21.5249 5.67871 21.5645 5.76367 21.5908 5.86328C21.6172 5.96191 21.6304 6.07178 21.6304 6.19287ZM21.2773 6.22363V6.19287C21.2773 6.11963 21.2705 6.05176 21.2568 5.98926C21.2432 5.92578 21.2217 5.87012 21.1924 5.82227C21.1631 5.77441 21.1255 5.7373 21.0796 5.71094C21.0347 5.68359 20.9805 5.66992 20.917 5.66992C20.8545 5.66992 20.8008 5.68066 20.7559 5.70215C20.7109 5.72266 20.6733 5.75146 20.6431 5.78857C20.6128 5.82568 20.5894 5.86914 20.5728 5.91895C20.5562 5.96777 20.5444 6.021 20.5376 6.07861V6.36279C20.5493 6.43311 20.5693 6.49756 20.5977 6.55615C20.626 6.61475 20.666 6.66162 20.7178 6.69678C20.7705 6.73096 20.8379 6.74805 20.9199 6.74805C20.9834 6.74805 21.0376 6.73438 21.0825 6.70703C21.1274 6.67969 21.1641 6.64209 21.1924 6.59424C21.2217 6.54541 21.2432 6.48926 21.2568 6.42578C21.2705 6.3623 21.2773 6.29492 21.2773 6.22363ZM22.1841 5.91895H22.6514C22.7881 5.91895 22.9043 5.94189 23 5.98779C23.0957 6.03369 23.1685 6.09766 23.2183 6.17969C23.269 6.26074 23.2944 6.35352 23.2944 6.45801C23.2944 6.53516 23.2803 6.60693 23.252 6.67334C23.2236 6.73877 23.1816 6.7959 23.126 6.84473C23.0713 6.89355 23.0039 6.93164 22.9238 6.95898C22.8447 6.98633 22.7539 7 22.6514 7H21.9497V5.41504H22.3042V6.72021H22.6514C22.7217 6.72021 22.7778 6.70801 22.8198 6.68359C22.8618 6.65918 22.8921 6.62744 22.9106 6.58838C22.9302 6.54932 22.9399 6.50781 22.9399 6.46387C22.9399 6.41895 22.9302 6.37646 22.9106 6.33643C22.8921 6.29639 22.8618 6.26367 22.8198 6.23828C22.7778 6.21289 22.7217 6.2002 22.6514 6.2002H22.1841V5.91895Z" fill="white"/>
</svg>
